<svg width="72" height="72" fill="none" xmlns="http://www.w3.org/2000/svg"><circle cx="36" cy="36" r="36" fill="url(#a)"/><path fill-rule="evenodd" clip-rule="evenodd" d="m52 39-2 4c4 1 6 4 6 7v6H41v-7l-1-1h-1v1h-2v1l1 1-3 4-2-1h-1v2h-5v-2h-1l-2 1-3-4 1-1v-1h-2v-5l2-1-1-2h1-1c-2 0-2-1-2-2v-2c0-1 0-2 2-2h1v-1h-6v-3c0-3 2-6 5-7a5 5 0 1 1 5 0l4 4c0-2 2-3 3-4a5 5 0 1 1 6 0c2 1 4 4 4 7v3h-6v1h2l2 2v2l-2 2h-2 1l-1 2h7a5 5 0 0 1 3-9c3 0 5 2 5 5Zm-5-4a4 4 0 1 0 0 8 4 4 0 0 0 0-8ZM33 21a3 3 0 1 1 6 0 3 3 0 0 1-6 0Zm9 10a6 6 0 0 0-12 0v2h2v-5h1v5h6v-5h1v5h2v-2ZM20 21a3 3 0 1 1 6 0 3 3 0 0 1-6 0Zm3 4c-3 0-6 3-6 6v2h2v-5h2v5h5v-5h1v5h2v-2c0-3-3-6-6-6Zm-2 14h-1v-2h2l2-2v-1h11v1l2 2h2v2h-3l-1-1-2 1-1-1v-1h-5v1l-1 1-2-1-1 1h-2Zm15 9h2-3a6 6 0 1 1-1-5h2v-2l-2-2-1 1h-1l-1-1v-1h-3v1l-1 1h-1l-1-1-2 2v4h-2v3h2v3l2 2 1-1v1h2v2h3v-2h2v-1l1 1 2-2v-3Zm-5-1a2 2 0 1 1-1-3 2 2 0 0 0 1 3Zm-1-4h3l-3-1a5 5 0 1 0 4 6h-1a3 3 0 1 1-3-5Zm25 12h-2v-7h-2v7h-9v-6c0-2-1-3-2-3h-8a1 1 0 0 1 0-2h17c3 0 6 3 6 6v5Zm1-27c0-2-2-4-5-4h-2c-3 0-5 2-5 4v5h7c3 0 5-2 5-5Zm-10 0c0-2 1-3 3-3h2a3 3 0 0 1 0 6h-5v-3Zm1 1h1v1h-1v-1Zm4 0h-1v1h1v-1Zm1 0h1v1h-1v-1Zm1-3h-6v2h6v-2Z" fill="#fff"/><defs><linearGradient id="a" x1="-35.8" y1="35.8" x2="35.8" y2="107.5" gradientUnits="userSpaceOnUse"><stop stop-color="#33D35E"/><stop offset="1" stop-color="#2AB6D9"/></linearGradient></defs></svg>