<svg width="1391" height="1088" fill="none" xmlns="http://www.w3.org/2000/svg"><g filter="url(#a)"><path fill-rule="evenodd" clip-rule="evenodd" d="M118 503c-36 0-54 44-29 70l135 134c18 19 44 29 70 29h71c27 0 52 11 71 30l161 161c19 18 44 29 71 29h388c73 0 109-88 58-139l-86-86c-20-20-6-53 21-53 28 0 42-33 22-53L876 430c-19-19-44-29-71-29H571c-27 0-52-11-71-29l-35-36c-19-18-44-29-71-29H159c-51 0-77 62-41 98l29 29c26 26 7 69-29 69Z" fill="#2D314D"/></g><path fill-rule="evenodd" clip-rule="evenodd" d="M256 196c-36 0-54 44-29 70l135 134c18 19 44 29 70 29h71c27 0 52 11 71 30l161 161c19 18 44 29 71 29h388c73 0 109-88 58-139l-86-86c-20-20-6-53 21-53 28 0 42-33 22-53l-195-195c-19-19-44-29-71-29H709c-27 0-52-11-71-29l-35-36c-19-18-44-29-71-29H297c-51 0-77 62-41 98l29 29c26 26 7 69-29 69Z" fill="url(#b)"/><g filter="url(#c)"><path fill-rule="evenodd" clip-rule="evenodd" d="M232 382h167c15 0 28 13 28 28v381c0 15-13 28-28 28H232c-16 0-29-13-29-28V410c0-15 13-28 29-28Z" fill="#000105"/></g><path opacity=".6" fill-rule="evenodd" clip-rule="evenodd" d="M399 382H231c-8 0-15 4-21 11 4-4 11-9 21-9h168c10 0 18 5 22 9-7-7-14-11-22-11Z" fill="url(#d)" fill-opacity=".7"/><path opacity=".7" fill-rule="evenodd" clip-rule="evenodd" d="M399 819H231c-8-1-15-4-20-9 4 3 10 7 20 7h168c10 0 17-5 21-8-5 6-12 9-21 10Z" fill="url(#e)" fill-opacity=".7"/><path opacity=".6" fill-rule="evenodd" clip-rule="evenodd" d="M212 811c4 3 10 6 17 6h174c6 0 11-2 16-5-5 4-12 7-19 7H232c-8 0-15-3-20-8Z" fill="url(#f)"/><path opacity=".8" fill-rule="evenodd" clip-rule="evenodd" d="M423 787V412c0-10-4-13-6-16-2-2-2-3 1-2 3 2 9 7 9 18v375c0 10-6 16-9 18-3 1-3 0-1-2 2-3 6-6 6-16Z" fill="url(#g)"/><path opacity=".8" fill-rule="evenodd" clip-rule="evenodd" d="M207 787V412c0-10 4-13 6-16 3-2 3-3-1-2-3 2-9 7-9 18v375c0 10 6 16 9 18 4 1 4 0 1-2-2-3-6-6-6-16Z" fill="url(#h)"/><ellipse cx="315" cy="398" rx="4.3" ry="4.1" fill="#181819"/><g opacity=".5" filter="url(#i)"><ellipse cx="315" cy="398" rx="4.3" ry="4.1" fill="#000"/></g><g opacity=".7"><ellipse cx="315" cy="398" rx="3.2" ry="3.1" fill="#1E1939"/><ellipse cx="315" cy="398" rx="2.1" ry="1.9" fill="#342B64"/><ellipse cx="315" cy="398" rx=".9" ry=".8" fill="#51439F"/><circle opacity=".3" cx="314.1" cy="397.2" fill="#fff" r=".6"/></g><path fill-rule="evenodd" clip-rule="evenodd" d="M295 393h-64c-10 0-17 6-17 15v369c0 12 11 22 23 22h156c12 0 24-10 24-22V409c0-10-8-16-17-16h-66s-5 2-7 6c-2 5-5 9-10 9h-5c-2 0-7-2-9-9-3-6-7-6-8-6Z" fill="#E3ECF6"/><mask id="j" style="mask-type:alpha" maskUnits="userSpaceOnUse" x="213" y="392" width="204" height="407"><path fill-rule="evenodd" clip-rule="evenodd" d="M295 393h-64c-10 0-17 6-17 15v369c0 12 11 22 23 22h156c12 0 24-10 24-22V409c0-10-8-16-17-16h-66s-5 2-7 6c-2 5-5 9-10 9h-5c-2 0-7-2-9-9-3-6-7-6-8-6Z" fill="#fff"/></mask><g mask="url(#j)"><path fill="#F7F7F7" d="M214 393h203v406H214z"/><path fill="url(#k)" d="M214 393h203v58H214z"/><rect x="225.7" y="550.5" width="179.2" height="50" rx="4" fill="#fff"/><path fill-rule="evenodd" clip-rule="evenodd" d="M278 567v2h-1v-5h1v2a1 1 0 0 1 1 0v-1l1 1 1 1v2h-1v-3h-2v1Zm-3 2a2 2 0 0 0 1-1h1-1l-1 1h-1l-1-1v-3h3v1h1l-1-1v-1h-3v1l-1 2 1 1v1h2Zm-35-1-1 1 2-5 2 5-1-1h-2Zm0-1h2l-1-2-1 2Zm5 2h1a1 1 0 0 0 1-1h-1a1 1 0 0 1 0 1h-1v-1l-1-1 1-1h1v1h1v-1h-1l-1-1v1h-1v2l1 1Zm5 0h-2v-3a2 2 0 0 1 1-1l1 1a1 1 0 0 1 1 1h-1v-1h-1l-1 1 1 1v1a1 1 0 0 0 1-1h1a1 1 0 0 1-1 1Zm3 0h1l1-1v-2h-1l-1-1-1 1-1 1 1 1v1h1Zm0 0h1v-3h-1l-1 1v1l1 1Zm4 0h2v-4h-1v4h-2v-4h-1v3l1 1h1Zm3-2v2-4 1a1 1 0 0 1 1 0l1-1v1h1v3h-1v-3h-1l-1 1Zm5 2h1-1v-3h1v-1h-1v-1h-1v1h-1v1h1v3h1Zm5-5v5h-1v-4h-1l1-1h1Zm13 5h1l1-1h-1v1h-1l-1-1h3v-2h-1l-1-1-1 1h-1v1l1 1v1h1Zm-1-2h2v-1h-1a1 1 0 0 0-1 1Zm5 2h1l1-1h-1a1 1 0 0 1-1 1l-1-1v-2h2v1h1l-1-1-1-1-1 1h-1v2l1 1h1Zm3-1v1h-1v-5h1v3l2-2h1l-2 2 2 2h-1l-1-2-1 1Zm4-3v-1h-1v1h1Zm0 0v4h-1v-4h1Zm2 4v-3h1l1 1v2-3l-1-1v1a1 1 0 0 0-1 0v-1h-1v4h1Zm6 1h-3v-1h1l-1-1h1v-1a1 1 0 0 1 0-1 3 3 0 0 1 2 0 6 6 0 0 0 1 0v-1 1h-1a1 1 0 0 1 1 1h-1v1h-2a4 4 0 0 0 1 0h1l1 1-1 1Zm-1-3h-1v-1h2v1h-1Zm-1 3h2v-1h-2v1Z" fill="#9597A5"/><path fill-rule="evenodd" clip-rule="evenodd" d="M244 586v1h-2v-1l-2-1-1-2h2l1 1 1 1h1l1-1v-2h-1l-2-1h-2l-1-2 1-2 1-1h1v-1h2v1h1l1 1v2h-1l-1-1-1-1h-1v1h-1v2h2l1 1 2 1 1 1-1 2-1 1h-1Zm10 0h-4l-2-1a2 2 0 0 1 0-3l1-1h1l-1-1-1-1 1-2 1-1h3l2 1v3l-2 1h1l1 1v3l-1 1Zm-2-6h-2v-3h3l1 2-1 1h-1Zm-2 4 2 1 1-1 1-1v-1h-1l-1-1-2 1-1 1 1 1Zm10 2 2-1 1-1 1-3-1-3-1-1-2-1h-2l-1 2-1 1 1 2 1 1a4 4 0 0 0 3 0h1v-1 2l-1 1-1 1-2-1v-1h-2l1 2 1 1h2Zm-1-5h2l1-1v-2l-1-1h-1a2 2 0 0 0-2 1v1l1 2Zm9 5 2-1 2-1v-6l-2-1-2-1h-2l-1 2v3l1 1a4 4 0 0 0 3 0h1l1-1-1 2-1 1-1 1-1-1-1-1h-1v2l2 1h1Zm-1-5h2l1-1v-2l-1-1h-1a2 2 0 0 0-1 1l-1 1 1 2Zm8 5v-2h-2v2h2Zm3-10h1v10h-1v-8h-2v-1h2v-1Zm9 10v-2h2v-2h-2v-6h-1l-5 6v2h5v2h1Zm-4-4h3v-4l-3 4Z" fill="#2D314D"/><rect x="225.7" y="467.2" width="179.2" height="66.7" rx="4" fill="url(#l)"/><path fill-rule="evenodd" clip-rule="evenodd" d="M255 496h-2v-5h1v5h1Zm-14 0v-4h2v-1h-4v1h1v4h1Zm3 0h1l1-1v-2h-1l-1-1-1 1-1 1 1 2h1Zm0 0h1v-3h-1l-1 1v1l1 1Zm4 0a2 2 0 0 0 1 0h-1v-3h1-1v-2h-1v2h-1 1v3h1Zm3 0h-2v-1l1-1h2l-1-1h-1v1h-1l1-1 1-1 1 1v3h-1Zm0 0h-1v-1l1-1h1v1l-1 1Zm8 0h1a2 2 0 0 0 1-1h-1v1h-1l-1-1v-3h2v1h1a2 2 0 0 0-1-2h-2l-1 1v3l1 1h1Zm4-2v2h-1v-5h1v2h2v3h-1v-3h-1v1Zm5 2h1v-1l-1 1h-1v-1h2v-2l-1-1-1 1h-1v3h2Zm-1-2h2l-1-1a1 1 0 0 0-1 1Zm5 2h1v-1a1 1 0 0 1-1 1l-1-1v-2h1l1 1v-1h-1v-1l-1 1h-1v3h2Zm3-1v1h-1v-5h1v3l1-1h1l-1 1 1 2-2-1Zm4-3v-1h-1v1h1Zm0 1v3h-1v-3h1Zm2 3v-3h1v3h1v-3h-3v3h1Zm6 1-1 1-2-1v-2h1l-1-1a1 1 0 0 1 0-1h1a3 3 0 0 1 1 0h2v-1 1h-1a1 1 0 0 1 0 1l-1 1h-1a4 4 0 0 0 1 0l1 1h1l-1 1Zm-1-3h-1v-1h1v1Zm-1 3h2v-1h-2l-1 1h1ZM247 517v2h-2v-2h-1l-3-1-1-3h2l1 2 3 1 1-1 1-1 1-1-1-1-2-1-2-1-3-1-1-3 1-2 2-2h2v-2h2v2l1 1 2 1 1 2h-2l-1-2h-5v1l-1 1 1 1 2 1 2 1c2 0 3 1 3 2l1 2-1 2-2 2h-1Zm17-2v2h-11v-2a4 4 0 0 1 2-3l1-1a55 55 0 0 1 4-2l1-1v-2l-1-1-2-1-2 1-1 2h-2l1-3 1-1 3-1h3l2 2v2a4 4 0 0 1-1 4l-2 1a48 48 0 0 1-3 2l-1 1v1h8Zm2 5 2-3v-2h-3v2h1l-1 3h1Zm13-3h-6l-2-2a4 4 0 0 1 0-4l1-1 1-1-2-1v-4l2-2h6l1 2 1 2-1 2-1 1 1 1 1 1 1 2-1 2-2 2Zm-3-9h-2l-1-2 1-2h4l1 2-1 2h-2Zm-3 7 3 1 2-1 1-2v-1l-1-1-2-1-2 1-1 1v3Zm16 2v-15h-2v1l-1 1h-3v1h3v12h3Zm12-2c-1 2-2 2-4 2s-3 0-4-2l-1-5v-5l2-2 3-1 4 2 2 6-2 5Zm-4 1-2-2-1-4 1-5 2-1 3 1v9l-3 2Zm10-2v3h-3v-3h3Zm8 3h3l2-2 1-3-1-2-2-2-3-1-1 1-2 1v-5h8v-2h-10v8l2 1 1-1 1-1h1l2 1 1 1v1l-1 3-2 1-2-1-1-1-1-1-2 1 1 2 2 1h3Zm16 0h-5l-3-1-1-2 2-1 1 1 1 1 2 1 2-1 1-3a3 3 0 0 0-1-2l-2-1h-1l-1 1-1 1-2-1 1-8h9v2h-8v5l2-1 2-1 2 1a5 5 0 0 1 3 4l-1 3-2 2Z" fill="#fff"/><rect x="225.7" y="608.8" width="179.2" height="50" rx="4" fill="#fff"/><path fill-rule="evenodd" clip-rule="evenodd" d="M271 628v-1h-2v-1h1a17 17 0 0 0 1-1v-3h-2l-1 1v1h1v-1h1l1 1h-1v1a17 17 0 0 0-2 1v2h3Zm-32 0 1-2h2l1 2-2-6-2 6Zm3-3h-2l1-2 1 2Zm4 2-1 1v-1h-1v-2l1-1h1a1 1 0 0 1 1 1h-1v-1h-1v1l-1 1 1 1a1 1 0 0 0 1-1h1a1 1 0 0 1-1 1Zm3 1 1-1h1v-1h-1v1a1 1 0 0 1-1 0l-1-1 1-1v-1h1v1h1v-1h-3v3l1 1Zm5-1-1 1-1-1-1-1 1-1v-1h2l1 1v2h-1Zm-1 0-1-1v-1h1v-1l1 1v2h-1Zm4 1h-1v-1a1 1 0 0 1-1-1v-2h1v3h2v-3h1v4h-1v-1l-1 1Zm3 0v-3h1v-1l1 1v3h1v-4h-2a1 1 0 0 0-1 0v4Zm5 0-1-1v-3h-1 1v-1h1v1h1-1v3h1v1h-1Zm12-1-1 1h-1l-1-1v-1l1 1h2v-1l-1-1h-2v-2l1-1h2v1l1 1h-1v-1h-1a2 2 0 0 0-1 0v1h1v1h1a1 1 0 0 1 1 1v1h-1Zm3 1v-1h1v1h1v-3l-1-1h-2v1l1-1h1v1h-1l-1 1-1 1h1v1h1Zm-1-1h2v-1h-2v1Zm5 1 2-4h-1l-1 3-1-3h-1l1 4h1Zm3-6v1h-1v-1h1Zm0 6v-4h-1v4h1Zm2-3v3h-1v-4h3v4h-1v-4h-1v1Zm5 4h1l1-1-1-1h-1a23 23 0 0 0-1 0v-1a1 1 0 0 1 1 0h1a1 1 0 0 0 0-2h1-1a2 2 0 0 0-1 0h-2v2h1-1v1h1-1v2h2Zm-1-4 1 1v-1h1l-1-1h-1v1Zm1 3h-1v-1h2v1h-1Zm5 0h-2l-1-1v-1h1v1h2l-1-1h-1l-1-1v-1h3v1l-1-1h-1v1h1l1 1a1 1 0 0 1 0 1v1Z" fill="#9597A5"/><path fill-rule="evenodd" clip-rule="evenodd" d="M244 644v2h-2v-2h-2l-1-2h2l1 1h2l1-1v-1l-1-1h-2l-2-1-1-2 1-1 1-1 1-1v-1h2v1l1 1 1 1v1h-1l-1-1h-3v2h2l1 1 2 1 1 2-1 1-1 1h-1Zm7-1v1h-1v-1a21 21 0 0 1 3-7h-5v-2h7v2a16 16 0 0 0-2 3 28 28 0 0 0-2 4Zm11 1v-2h1v-1h-1v-7h-2l-4 7v1h4v2h2Zm-5-3h3v-5l-3 5Zm8 5 1-2v-1h-2v1h1l-1 2h1Zm5-12v10h-1v-7h-2v-1h1l1-1v-1h1Zm6 10h2l1-2 1-3-1-2-1-2-2-1-2 1-1 1v3l1 1a4 4 0 0 0 3 1l1-1v-1 2l-1 2h-2l-1-1h-1v1l1 1h2Zm-1-5 1 1 1-1h1v-2l-1-1-1-1a2 2 0 0 0-2 1v2l1 1Zm9 5h2l2-2v-5l-2-2-2-1-2 1-1 1v3l1 1a4 4 0 0 0 3 1l1-1 1-1-1 2v2h-3l-1-1h-1v1l2 1h1Zm-1-5 1 1 1-1h1v-2l-1-1-1-1a2 2 0 0 0-1 1l-1 2 1 1Zm8 5v-1h-2v1h2Zm7 0h-2a3 3 0 0 1-3-2l-1-2 1-3 1-2 2-1 2 1 1 1v1h-1l-1-1h-2l-1 1v2l1-1h3l1 1v4l-1 1Zm-2-1h-1l-1-1v-2a2 2 0 0 1 2-1h1l1 1v2a2 2 0 0 1-2 1Zm7-9h1v10h-2v-7h-1v-1h1l1-1v-1Z" fill="#2D314D"/><rect x="225.7" y="667.2" width="179.2" height="50" rx="4" fill="#fff"/><path fill-rule="evenodd" clip-rule="evenodd" d="M280 683v3h-1v-6h1v3a1 1 0 0 1 0-1h1l1 1v3h-1v-3h-1Zm-9 2v1h-3v-1a2 2 0 0 1 0-1h1a18 18 0 0 1 1-1l1-1-1-1-1 1h-1v-1h3v1a2 2 0 0 1 0 1l-1 1a17 17 0 0 1-1 0v1h2Zm-31 0-1 1 2-5 2 5-1-1h-2Zm0-1h2l-1-3-1 3Zm5 2h1a1 1 0 0 0 1-1h-1a1 1 0 0 1-1 0l-1-1 1-1h2l-1-1h-1l-1 1v2l1 1Zm5 0h-2v-3a2 2 0 0 1 1-1h1a1 1 0 0 1 1 1h-2l-1 1 1 1h2a1 1 0 0 1-1 1Zm3 0h1l1-1v-2l-1-1h-2v1l-1 1 1 1v1h1Zm0-1h1v-2h-2v2h1Zm4 1h1v-1 1h1v-4h-1v3h-2v-3h-1v3h1v1h1Zm3-3v3-4 1a1 1 0 0 1 1-1h1l1 1v3h-1v-3h-2Zm5 3a2 2 0 0 0 1 0v-1h-1v-2h1v-1h-1v-1h-1v1h-1v1h1v3h1Zm11 0h1a2 2 0 0 0 1-1v-1h-1v1h-2v-4h2v1h1a2 2 0 0 0-1-1h-2l-1 1v3l1 1h1Zm8 0h1l1-1h-2l-1-1h3v-1l-1-1h-2v3l1 1Zm-1-2h2v-1a1 1 0 0 0-1 0l-1 1Zm5 2h1a1 1 0 0 0 1-1h-1a1 1 0 0 1-1 0l-1-1 1-1h2l-1-1h-2v3l1 1Zm3-1v1-6 4l2-2h1l-1 2 1 2h-1l-1-2-1 1Zm5-4h-1 1Zm0 1v4h-1v-4h1Zm1 4v-3h2v3h1v-3l-1-1h-1a1 1 0 0 0-1 1v-1 4Zm7 1h-3l-1-1h1v-2a1 1 0 0 1 0-1l1-1a3 3 0 0 1 1 0 5 5 0 0 0 1 0h1l-1 1v1h-2v1h-1 1a9 9 0 0 0 1 0h1v2Zm-2-3v-1h1v1h-1Zm0 3h1l1-1h-3l1 1Z" fill="#9597A5"/><path fill-rule="evenodd" clip-rule="evenodd" d="M244 704v-1l1-1 1-1 1-1-1-2-2-1h-1l-2-1v-1l1-1h2l1 2 1-1v-1l-1-1h-1v-2h-2v2h-1l-1 1-1 2 1 1 2 1 2 1h1v2h-1l-1 1-1-1-1-1h-2l1 2 2 1v1h2Zm7-1v-10h-1l-1 1h-1v1h2v8h1Zm4-1-1 2h-1l1-1h-1v-2h2v1Zm5 1 2-1 1-2 1-2-1-3-1-2h-4l-1 1-1 2 1 2 1 1a4 4 0 0 0 3 0l1-1v2l-1 1-1 1-2-1v-1h-2l1 2h1l2 1Zm-1-6 1 1h1l1-1v-2l-1-1h-1a2 2 0 0 0-2 1v1l1 1Zm9-4h-1l-1 1h-1v1h2v8h1v-10Zm4 0h1v10h-1v-8h-2v-1h1l1-1Zm5 10v-2h-1v2h1Zm7-3v3h-1v-3h-5v-1l5-6h1v6h2v1h-2Zm-1-1h-3l3-4v4Zm6-6h1v10h-1v-8h-2v-1h1l1-1Z" fill="#2D314D"/><rect x="225.7" y="725.5" width="179.2" height="50" rx="4" fill="#fff"/><path fill-rule="evenodd" clip-rule="evenodd" d="M271 744h-2v-1l1-1a14 14 0 0 0 1 0v-3h-2l-1 1v1h1v-1h2l-1 1v1a21 21 0 0 0-2 0v2h3Zm-32 0 1-1h2l1 1-2-5-2 5Zm3-2h-2l1-2 1 2Zm4 2h-1l-1-1v-2h1v-1l1 1a1 1 0 0 1 1 1h-1v-1h-1l-1 1 1 1v1h1v-1h1a1 1 0 0 1-1 1Zm3 0h2v-1h-1a1 1 0 0 1-1 1v-1l-1-1 1-1h1v1h1v-1h-1l-1-1-1 1v3h1Zm5 0h-2v-1l-1-1 1-1 1-1 1 1h1v2l-1 1Zm-1 0-1-1v-1l1-1h1v3h-1Zm4 0h-1a1 1 0 0 1-1-1v-3h1v4h2v-4h1v4h-2Zm3 0v-2l1-1h1v3h1v-3h-1v-1l-1 1a1 1 0 0 0-1 0v-1 4Zm5 0h-1v-3h-1v-1h1v-1h1v1h1v1h-1v3h1-1Zm12 0h-3v-1h1v1h1l1-1v-1h-2l-1-1v-1l1-1h2v1h1-2a2 2 0 0 0-1 0v1h1l1 1a1 1 0 0 1 1 0v2h-1Zm3 0h2v-2l-1-1-1-1-1 1v1l1-1h1v1h-2l-1 1 1 1h1Zm-1 0h2v-2h-1l-1 1v1Zm5 0 2-4h-1l-1 3-1-3h-1l1 4h1Zm3-5v1h-1v-1h1Zm0 5v-4h-1v4h1Zm2-2v2h-1v-4h1v1l1-1 1 1v3h-1v-3h-1v1Zm5 3h1l1-1h-1l-1-1a23 23 0 0 0-1 0 1 1 0 0 1 1 0h1v-1a1 1 0 0 0 0-1h1v-1l-1 1a2 2 0 0 0-1-1l-1 1h-1v1l1 1h-1v1h1-1v1h2Zm-1-3h2l-1-1h-1v1Zm1 3h-1v-1h2v1h-1Zm5-1h-3v-1h1v1h1l1-1h-2v-1h-1v-1h1l1-1 1 1v1l-1-1h-1v1h2v1a1 1 0 0 1 0 1Z" fill="#9597A5"/><path fill-rule="evenodd" clip-rule="evenodd" d="M244 761v1h-2v-1l-2-1-1-2h2l1 1 1 1h1l1-1v-2h-1l-2-1h-2l-1-2 1-2 1-1h1v-1h2v1h1l1 1v2h-1l-1-1-1-1h-1v1h-1v2h2l1 1 2 1 1 1-1 2-1 1h-1Zm11-1v1h-7v-1a3 3 0 0 1 1-3h1a36 36 0 0 1 2-2h1v-2l-2-1-1 1-1 1h-1v-1l1-2h4l1 1 1 2a3 3 0 0 1-1 2l-1 1a32 32 0 0 1-2 1l-1 1v1h5Zm4 1 3-1 1-4-1-4-3-1-1 1-2 1v3l1 4 2 1Zm-1-2 1 1 2-1v-6l-2-1-1 1-1 3 1 3Zm7 4 1-2v-2h-2v2h1l-1 2h1Zm8-4v2h-1v-2h-5v-2l5-6h1v6h2v2h-2Zm-1-2h-3l3-4v4Zm7 2v2h-2l1-2a21 21 0 0 1 3-7h-5v-1h7v1a16 16 0 0 0-2 4 27 27 0 0 0-2 3Zm8 2h2l2-2v-3l-2-1h-4l1-3h4v-1h-5l-1 5 1 1 1-1h3v1l1 1-1 1-2 1h-1l-1-1v-1l-1 1v1l2 1h1Zm7-2v2h-2v-2h2Zm5 2 2-1 1-4-1-4-2-1-2 1-1 1-1 3 1 4 3 1Zm-2-2 2 1 1-1 1-3-1-3-1-1-2 1v6Zm10 2 2-1 1-4-1-4-2-1-2 1-1 1-1 3 1 4 3 1Zm-2-2 2 1 1-1 1-3-1-3-1-1-2 1v6Z" fill="#2D314D"/><g filter="url(#m)"><path fill="#fff" d="M214 756h203v42H214z"/></g><rect x="293.6" y="765.1" width="43.8" height="25" rx="12" fill="url(#n)"/><path fill-rule="evenodd" clip-rule="evenodd" d="m316 773-5 10h3l5-10h-3Z" fill="#fff"/><path fill-rule="evenodd" clip-rule="evenodd" d="m310 777-2 2h14l1-2h-13ZM311 422l-9 17h5l9-17h-5Z" fill="#fff"/><path opacity=".5" fill-rule="evenodd" clip-rule="evenodd" d="m317 422-9 17h5l9-17h-5Z" fill="#fff"/><path opacity=".1" fill-rule="evenodd" clip-rule="evenodd" d="m323 422-9 17h5l9-17h-5Z" fill="#fff"/><path fill-rule="evenodd" clip-rule="evenodd" d="M405 399h-8v1h-2l1 1h1-1l1 1-1-1-1 1h2v3h4v1-1l1 1v-1h3v-3h2l-1-1v1-1h-1 1l1-1h-2v-1Zm2 6h6v-6l-6 6ZM239 403l-1 1-1-1-1-1v-2l1-1h2l1 1v2l-1 1Zm-11-4v4h-1v-3h-1l2-1Zm4 4h-3v-1l2-3h1v3h1v1h-1Zm0-1h-2l1-2h1v2Zm3-1h-1v-1h1v1Zm-1 2h1v-1h-1v1Zm4 0-1-1v-2l1-1 1 1v2l-1 1Zm6-3-2 4-1-1 2-3h-2v-1h3v1Z" fill="#fff"/></g><g filter="url(#o)"><path fill-rule="evenodd" clip-rule="evenodd" d="M484 138h167c16 0 29 13 29 28v381c0 16-13 28-29 28H484c-16 0-29-12-29-28V166c0-15 13-28 29-28Z" fill="#000105"/></g><path opacity=".6" fill-rule="evenodd" clip-rule="evenodd" d="M651 138H483c-8 0-15 4-21 11 4-4 11-9 22-9h167c10 0 18 5 22 9-7-7-14-11-22-11Z" fill="url(#p)" fill-opacity=".7"/><path opacity=".7" fill-rule="evenodd" clip-rule="evenodd" d="M651 575H483c-8 0-15-3-20-9 4 3 10 7 21 7h167c10 0 17-4 22-8-6 7-13 10-22 10Z" fill="url(#q)" fill-opacity=".7"/><path opacity=".6" fill-rule="evenodd" clip-rule="evenodd" d="M464 567c5 4 11 6 17 6h174c6 0 11-2 16-5-5 5-12 7-19 7H484c-8 0-15-3-20-8Z" fill="url(#r)"/><path opacity=".8" fill-rule="evenodd" clip-rule="evenodd" d="M675 543V169c0-10-4-14-6-17-2-2-2-3 1-1 3 1 9 7 9 18v374c0 11-6 16-9 18s-3 0-1-2 6-6 6-16Z" fill="url(#s)"/><path opacity=".8" fill-rule="evenodd" clip-rule="evenodd" d="M460 543V169c0-10 3-14 5-17 3-2 3-3 0-1-4 1-10 7-10 18v374c0 11 6 16 10 18 3 2 3 0 0-2-2-2-5-6-5-16Z" fill="url(#t)"/><ellipse cx="567.1" cy="154.3" rx="4.3" ry="4.1" fill="#181819"/><g opacity=".5" filter="url(#u)"><ellipse cx="567.1" cy="154.3" rx="4.3" ry="4.1" fill="#000"/></g><g opacity=".7"><ellipse cx="567.1" cy="154.3" rx="3.2" ry="3.1" fill="#1E1939"/><ellipse cx="567.1" cy="154.3" rx="2.1" ry="1.9" fill="#342B64"/><ellipse cx="567.1" cy="154.3" rx=".9" ry=".8" fill="#51439F"/><circle opacity=".3" cx="566.2" cy="153.5" fill="#fff" r=".6"/></g><path fill-rule="evenodd" clip-rule="evenodd" d="M548 149h-65c-10 0-17 7-17 15v370c0 11 11 21 23 21h156c12 0 24-10 24-21V165c0-10-8-16-17-16h-66s-5 2-7 7c-2 4-5 8-10 8h-4c-2 0-8-2-10-8-3-7-7-7-7-7Z" fill="#E3ECF6"/><mask id="v" style="mask-type:alpha" maskUnits="userSpaceOnUse" x="466" y="148" width="203" height="407"><path fill-rule="evenodd" clip-rule="evenodd" d="M548 149h-65c-10 0-17 7-17 15v370c0 11 11 21 23 21h156c12 0 24-10 24-21V165c0-10-8-16-17-16h-66s-5 2-7 7c-2 4-5 8-10 8h-4c-2 0-8-2-10-8-3-7-7-7-7-7Z" fill="#fff"/></mask><g mask="url(#v)"><path fill="#F7F7F7" d="M466 149h203v406H466z"/><rect x="478" y="198.4" width="179.2" height="50" rx="4" fill="#fff"/><path fill-rule="evenodd" clip-rule="evenodd" d="M530 215v2-5 2a1 1 0 0 1 1-1h1l1 1v3h-1v-3h-1l-1 1Zm-3 2h1a2 2 0 0 0 1-1v-1h-1v1h-1v1l-1-1-1-1 1-2 1-1v1h1v1h1a2 2 0 0 0-1-2h-2l-1 1v3l1 1h1Zm-35-1v1h-1l2-5h1l2 5h-1l-1-1h-2Zm0-1h2l-1-2-1 2Zm6 2h1v-1a1 1 0 0 1-1 1l-1-1v-2h1l1 1v-2h-1l-1 1h-1v2l1 1h1Zm4 0h-1l-1-1v-2a2 2 0 0 1 2-1 1 1 0 0 1 1 2h-1v-1h-1v2l1 1v-1h1a1 1 0 0 1-1 1Zm3 0h1l1-1v-2h-1l-1-1-1 1v3h1Zm0-1v1l1-1v-2h-1v1h-1l1 1Zm4 1h1v-1 1h1v-4h-1v3l-1 1v-4h-1v4h1Zm4-2v2h-1v-4h1v1a1 1 0 0 1 0-1h2v4h-1v-3h-1v1Zm4 2a2 2 0 0 0 1 0h-1v-3h1v-1h-1v-1l-1 1v4h1Zm5-5v5h-1v-4h-1l1-1h1Zm13 5h2v-1h-1l-1 1v-1h-1v-1h3v-1h-1l-1-1-1 1v3h1Zm-1-2h2v-1h-1a1 1 0 0 0-1 0v1Zm5 2h2v-1h-1a1 1 0 0 1-1 1v-1l-1-1 1-1h1v1h1v-1l-1-1h-1l-1 1v3h1Zm3-1v1-5 3l2-2h1l-1 2 1 2h-1l-1-2-1 1Zm4-3v-1 1Zm0 0v4-4Zm2 4v-3h2v3h1v-3l-1-1h-1a1 1 0 0 0-1 1v-1 4Zm7 1h-3l-1-1h1v-2a1 1 0 0 1 0-1v-1a3 3 0 0 1 2 0v1a5 5 0 0 0 1-1v1a1 1 0 0 1 0 1l-1 1h-2 2l1 1v1Zm-2-3h-1l1-1h1v1h-1Zm-1 3h2v-1h-2v1Z" fill="#9597A5"/><path fill-rule="evenodd" clip-rule="evenodd" d="M496 234v1h-1v-1h-1l-1-1-2-2h2l1 1 1 1h1l1-1v-2h-1l-2-1-2-1v-3l2-1h1v-1h1v1h1l1 1 1 2h-2v-1l-2-1-1 1-1 1h1l1 1h2l1 2 1 1v2l-2 1h-1Zm10 0h-4l-1-1a2 2 0 0 1-1-3l1-1h1l-1-1v-3l1-1h4l1 1v3l-1 1h1v1l1 1-1 2-1 1Zm-2-6h-1l-1-1 1-2h2l1 2-1 1h-1Zm-2 4 2 1 2-1v-2h-1l-1-1-1 1h-1v2Zm10 2 2-1 2-1v-6l-2-2h-4l-1 2v3l1 1a4 4 0 0 0 3 0h1l1-1-1 2-1 1-1 1-1-1-1-1h-1v2l2 1h1Zm-1-5h2l1-1v-2l-1-1h-1a2 2 0 0 0-1 1l-1 1 1 2Zm9 5 3-1 1-1v-6l-1-2h-4l-2 2v3l2 1a4 4 0 0 0 2 0h1l1-1v2l-1 1-2 1-1-1-1-1h-1l1 2 1 1h1Zm-1-5h3v-1h1l-1-2v-1h-1a2 2 0 0 0-2 1v3Zm8 5v-2h-2v2h2Zm4-10h1v10h-2v-8h-2v-1h2l1-1Zm9 10v-3h1v-1h-1v-6h-2l-4 6v1h4v3h2Zm-5-4h3v-4l-3 4Z" fill="#2D314D"/><rect x="478" y="115.1" width="179.2" height="66.7" rx="4" fill="url(#w)"/><path fill-rule="evenodd" clip-rule="evenodd" d="M499 165v2h-2v-2l-3-1c-1 0-2-1-2-3h2l2 2h3l2-1v-1l-1-1-1-1-3-1-3-1-1-3 1-2 2-2h2v-2h2v2h2l1 2 1 2h-2l-1-2h-4l-1 1v2l2 1 3 1 3 1v5l-2 2h-2Zm17-2v2h-11v-2l1-2 1-1 2-1a58 58 0 0 1 3-2l1-1v-4h-2l-3 1-1 2h-2l1-3 2-2h5l2 2 1 2a4 4 0 0 1-2 4l-1 1a49 49 0 0 1-3 1l-2 1v2h8Zm2 5 2-3v-2h-2v2h1l-2 3h1Zm13-3h-6l-2-2a4 4 0 0 1 0-4l1-1 1-1-1-1-1-2 1-2 2-2h5l2 2v4l-2 1 2 1 1 1v2l-1 2-2 2Zm-3-9h-2l-1-2 1-2 2-1 2 1 1 2-1 2h-2Zm-2 7 2 1 3-1 1-2-1-1-1-1-2-1-2 1-1 1v1l1 2Zm15 2v-15h-2v1l-1 1h-2v1h3v12h2Zm13-2c-1 2-3 2-5 2-1 0-3 0-4-2l-1-5 1-5 2-2 3-1c1 0 3 0 4 2l1 6-1 5Zm-4 0-3-1-1-4 1-5 2-1 3 1 1 5-1 4-2 1Zm9-1v3h-2v-3h2Zm8 3h3l2-2 1-3-1-3-2-1-2-1-2 1h-2l1-4h7v-2h-9l-1 8h2v1-1h1l1-1h1l2 1 1 1v4h-5l-1-1-1-1-2 1 2 1 2 2h2Zm16 0h-5l-2-2-2-1 2-1 1 1 2 1h4l1-3a3 3 0 0 0-2-2l-2-1h-1l-1 1h-1v1-1h-2l1-8h9v2h-7l-1 4h2l2-1 2 1a4 4 0 0 1 3 4l-1 3-2 2Z" fill="#fff"/><rect x="478" y="256.8" width="179.2" height="50" rx="4" fill="#fff"/><path fill-rule="evenodd" clip-rule="evenodd" d="M524 276v-1h-3v-1h1a16 16 0 0 0 1-1l1-1v-1l-1-1h-2l-1 1v1h1v-1h2v1l-1 1a21 21 0 0 0-1 1h-1v2h4Zm-32 0v-2h2l1 2h1l-2-6h-1l-2 6h1Zm2-3h-2l1-2 1 2Zm5 2-1 1-1-1h-1v-2l1-1h2a1 1 0 0 1 0 1h-1v-1l-1 1v2h2v-1a1 1 0 0 1 0 1Zm3 1v-1h1v-1h-1v1h-1v-2l1-1v1h1v-1h-2l-1 1v2h1l1 1Zm4-1-1 1-1-1v-3h2l1 1v2h-1Zm-1 0v-1h-1l1-1v-1h1v3h-1Zm5 0-1 1v-1h-1a1 1 0 0 1 0-1v-2h1v3h1v-3h1v4h-1v-1Zm3 1v-4h1v4h1v-4h-3v4h1Zm5 0h-1v-1h-1v-3l1-1v1h1-1v3h1v1Zm11-1-1 1-1-1h-1v-1h1v1h2v-2h-3v-2l1-1h2l1 1v1h-1v-1a2 2 0 0 0-1 0h-1v1h1l1 1a1 1 0 0 1 1 1v1h-1Zm3 1 1-1v1h1v-4h-3v1h1v-1h1v1l-2 1v1l1 1Zm0-1h1v-1h-2l1 1Zm4 1 2-4h-1l-1 3-1-3h-1l2 4Zm3-6v1h-1v-1h1Zm0 6v-4h-1v4h1Zm2-3v3h-1v-4h1a1 1 0 0 1 1 0h1v4-3l-1-1-1 1Zm5 4 1-1h1v-1h-1a23 23 0 0 0-2-1 1 1 0 0 1 1 0h1v-1a1 1 0 0 0 0-1h1a14 14 0 0 0-1 0 2 2 0 0 0-1 0h-1l-1 1h1v1h-1v1h1-1v1h1l1 1Zm-1-4 1 1 1-1v-1h-2v1Zm1 3h-1v-1a1 1 0 0 1 1 0h1v1h-1Zm5-1-1 1-1-1-1-1h1v1h2v-1h-1l-1-1v-1h2l1 1h-1v-1h-1l-1 1h2v1h1a1 1 0 0 1-1 1Z" fill="#9597A5"/><path fill-rule="evenodd" clip-rule="evenodd" d="M496 292v2h-1v-2h-2l-2-2h2l1 1h2l1-1v-1l-1-1h-2l-2-1v-3l2-1 1-1v-1h1v1l1 1 1 1 1 1h-2v-1l-2-1v1h-1l-1 1 1 1h1l2 1 1 1 1 2v1l-2 1h-1Zm8-1-1 1h-1a14 14 0 0 1 1-4 25 25 0 0 1 3-4h-6v-2h7v2a16 16 0 0 0-2 3 27 27 0 0 0-1 4Zm10 1v-2h1v-1h-1v-7h-2l-4 6v2h4v2h2Zm-5-3h3v-5l-3 5Zm8 5 1-2v-1h-2v1h1l-1 2h1Zm6-12v10h-2v-7h-2v-1l2-1h1v-1h1Zm5 10h2l2-2v-5l-2-2-2-1-2 1-1 1v3l1 1a4 4 0 0 0 3 1l1-1 1-1-1 2v2h-3l-1-1h-1v1l2 1h1Zm-1-5 1 1 1-1h1v-2l-1-1-1-1-1 1-1 2 1 1Zm9 5h3l1-2v-5l-1-2-2-1-2 1-1 1-1 2 1 1 1 1a4 4 0 0 0 3 1v-1l1-1v2l-1 2h-3v-1h-2l1 1 1 1h1Zm-1-5 2 1 1-1 1-1-1-1v-1l-1-1-1 1h-1v3Zm8 5v-2h-1v2h1Zm7 0h-2a3 3 0 0 1-3-2l-1-3 1-2 1-2 2-1 2 1h1l1 2h-2v-1l-2-1-1 1-1 1v2h1l1-1h2l1 1 1 2-1 2-1 1Zm-2-1a2 2 0 0 1-2-1v-1l1-1a2 2 0 0 1 1-1h1l1 1v2l-1 1h-1Zm7-9h1v10h-1v-7h-2v-1l1-1h1v-1Z" fill="#2D314D"/><rect x="478" y="315.1" width="179.2" height="50" rx="4" fill="#fff"/><path fill-rule="evenodd" clip-rule="evenodd" d="M532 331v3h-1v-6h1v3a1 1 0 0 1 0-1h2v4-3h-2Zm-8 2v1h-4v-2h1a17 17 0 0 1 1-1h1v-2h-2v1h-1v-1h1l1-1 1 1h1v1a2 2 0 0 1-1 1v1a18 18 0 0 1-1 0l-1 1h3Zm-32-1v2h-1l2-5h1l2 5h-1l-1-2h-2Zm0 0h2l-1-3-1 3Zm6 2h1v-1a1 1 0 0 1-1 0h-1v-2h2v-1h-2l-1 1v2l1 1h1Zm4 0h-1l-1-1v-2a2 2 0 0 1 2-1 1 1 0 0 1 1 1h-2v2h2a1 1 0 0 1-1 1Zm3 0h1l1-1v-2l-1-1h-2v4h1Zm0-1h1v-2h-1l-1 1 1 1Zm4 1h1v-1 1h1v-4h-1v3h-1v-3h-1v4h1Zm4-3v3h-1v-4h1v1a1 1 0 0 1 0-1h2v4h-1v-3h-1Zm4 3a2 2 0 0 0 1 0v-1h-1v-2h1v-1h-1v-1l-1 1v3l1 1Zm11 0h1a2 2 0 0 0 1-1v-1h-1v1h-2v-4h2v1h1a2 2 0 0 0-1-1l-1-1-1 1-1 1v3l1 1h1Zm9 0h1v-1h-2v-1h2v-2h-2l-1 1v2l1 1h1Zm-1-2h2v-1h-1a1 1 0 0 0-1 0v1Zm5 2 1-1a1 1 0 0 1-1 0h-1v-2h2l-1-1h-1l-1 1v2l1 1h1Zm3-1v1h-1v-6h1v4l1-2h1l-1 2 1 2-2-2v1Zm4-4h-1 1Zm0 1v4h-1v-4h1Zm2 4v-3h1v3h1v-3l-1-1h-1a1 1 0 0 0 0 1v-1h-1v4h1Zm6 1h-3v-1a2 2 0 0 1 0-1v-1h1-1a1 1 0 0 1 0-1l1-1a3 3 0 0 1 1 0h2v1h-1v1h-2v1a4 4 0 0 0 1 0h1l1 1-1 1Zm-1-3h-1v-1l1-1v1h1l-1 1Zm-1 2 1 1 1-1h-1l-1-1v1Z" fill="#9597A5"/><path fill-rule="evenodd" clip-rule="evenodd" d="M496 352v-1l1-1 2-1v-1l-1-2-1-1h-2l-1-1-1-1h1v-1h3v1h2l-1-1-1-1h-1v-2h-1v2h-1l-2 1v3l2 1h2l1 1v2h-3l-1-1h-2l2 2 1 1h1v1h1Zm7-1v-10h-1l-1 1h-1v1h2v8h1Zm4-1-1 2h-1l1-1v-2h1v1Zm5 1 2-1 2-2v-5l-2-2h-4l-1 1v4l1 1a4 4 0 0 0 3 0l1-1 1-1-1 3-1 1h-2l-1-1h-1v1l2 1 1 1Zm-1-6 1 1h1l1-1v-2l-1-1h-1a2 2 0 0 0-1 1l-1 1 1 1Zm9-4h-1l-1 1h-1v1h2v8h1v-10Zm5 0h1v10h-2v-8h-2v-1h2l1-1Zm5 10v-2h-2v2h2Zm7-3v3h-2v-3h-4v-1l4-6h2v6h1v1h-1Zm-2-1h-3l3-4v4Zm6-6h1v10h-1v-8h-2v-1h2v-1Z" fill="#2D314D"/><rect x="478" y="373.4" width="179.2" height="50" rx="4" fill="#fff"/><path fill-rule="evenodd" clip-rule="evenodd" d="M524 392v-1h-3 1v-1a16 16 0 0 0 1 0l1-1v-1l-1-1h-2l-1 1v1h1v-1l1-1 1 1v1h-1v1a19 19 0 0 0-1 0l-1 1v1h4Zm-32 0v-1h2l1 1h1l-2-5h-1l-2 5h1Zm2-2h-2l1-2 1 2Zm5 2h-2l-1-1v-2h1l1-1h1a1 1 0 0 1 0 2l-1-1h-1v2l1 1 1-1a1 1 0 0 1 0 1Zm3 0h1v-1h-1a1 1 0 0 1 0 1l-1-1v-2h1v1h1v-1l-1-1-1 1h-1v2l1 1h1Zm4 0h-2v-3l1-1 1 1h1v2l-1 1Zm-1 0v-1l-1-1h1v-1h1v2l-1 1Zm5 0h-2a1 1 0 0 1 0-1v-3h1v4l1-1v-3h1v4h-1v-1 1Zm3 0v-3h1v3h1v-4h-2a1 1 0 0 0 0 1v-1h-1v4h1Zm5 0h-2v-4l1-1v1h1v1h-1v3h1Zm11 0h-2l-1-1h1v1h2v-2h-2l-1-1v-1l1-1h2l1 1h-1a2 2 0 0 0-1 0h-1v1h2v1a1 1 0 0 1 1 0v2h-1Zm3 0h1v-1 1h1v-3l-1-1h-1l-1 1h2v1h-2v2h1Zm0 0h1v-2h-1v1h-1l1 1Zm4 0 2-4h-1l-1 3-1-3h-1l2 4Zm3-5v1h-1v-1h1Zm0 5v-4h-1v4h1Zm2-2v2h-1v-4h1v1a1 1 0 0 1 1-1h1v4-3h-2v1Zm5 3h1l1-1-1-1a24 24 0 0 0-2 0 1 1 0 0 1 1 0h1v-1a1 1 0 0 0 0-1h1v-1a27 27 0 0 0-1 1 2 2 0 0 0-1-1h-1v1l-1 1h1v1h-1l1 1h-1l1 1h1Zm-1-3h2v-1h-2v1Zm1 3h-1v-1a1 1 0 0 1 1 0h1v1h-1Zm5-1h-2l-1-1h1l1 1h1v-1h-1v-1h-1v-2h1l1 1h1-3v1h2v1h1a1 1 0 0 1-1 1Z" fill="#9597A5"/><path fill-rule="evenodd" clip-rule="evenodd" d="M496 409v1h-1v-1h-1l-1-1-2-2h2l1 1 1 1h1l1-1v-2h-1l-2-1-2-1v-3l2-1h1v-1h1v1h1l1 1 1 2h-2v-1l-2-1-1 1-1 1h1l1 1h2l1 2 1 1v2l-2 1h-1Zm11-1v1h-7v-1l1-2v-1h1a35 35 0 0 1 2-2h1v-2l-1-1-2 1v1h-2l1-2 1-1h3l2 1v2a3 3 0 0 1-1 2l-1 1a32 32 0 0 1-2 1h-1v2h5Zm5 1 2-1 1-4-1-4-2-1h-2l-1 2-1 3 1 4 3 1Zm-2-2 2 1 1-1 1-3-1-3-1-1-2 1v6Zm7 4 1-2v-2h-2v2h1l-1 2h1Zm8-5v3h-1v-3h-5v-1l5-6h1v6h2v1h-2Zm-1-1h-3l3-4v4Zm7 2v2h-1a14 14 0 0 1 1-4 25 25 0 0 1 2-5h-5v-1h7v1a16 16 0 0 0-2 4 27 27 0 0 0-2 3Zm9 2h2l1-2v-3l-1-1-2-1-1 1h-1v-3h5v-1h-6l-1 5 2 1v-1h3l1 1v1l-1 1-1 1h-1l-1-1-1-1-1 1 1 1 1 1h2Zm6-2v2h-1v-2h1Zm5 2 3-1 1-4-1-4-3-1h-2l-1 2-1 3 1 4 3 1Zm-1-2 1 1 2-1v-6l-2-1-1 1-1 3 1 3Zm9 2 3-1 1-4-1-4-3-1h-2l-1 2v3l1 4 2 1Zm-1-2 1 1 2-1v-6l-2-1-1 1-1 3 1 3Z" fill="#2D314D"/><path opacity=".5" fill="#000" d="M466 130h204v293H466z"/><path fill="url(#x)" d="M466 149h203v59H466z"/><g filter="url(#y)"><path fill="#fff" d="M466 423h203v205H466z"/></g><rect x="477.8" y="473.4" width="179.2" height="66.7" rx="12" fill="url(#z)"/><path fill-rule="evenodd" clip-rule="evenodd" d="M507 503h-1a1 1 0 0 1 0-1h-1v-5h1v5h1v1Zm-14 0v-5h2v-1h-4v1h1v5h1Zm3 0 1-1h1v-2l-1-1h-2v3l1 1Zm0-1h1v-2l-1-1v1h-1v1l1 1Zm4 1a2 2 0 0 0 1 0v-1h-1v-3h1-1v-1h-1v1h-1 1v3l1 1Zm3-1v1h-1l-1-1 1-1 1-1h1v-1h-2v1h-1l1-1h2v4-1h-1Zm0 0h-1v-1h2v1h-1Zm8 1h1a2 2 0 0 0 1-1v-1h-1v1h-1l-1-1v-3h2v1h1a2 2 0 0 0-1-2h-1l-1 1h-1v3l1 1 1 1Zm4-3v3h-1v-6h1v2h2v4-3h-1v-1h-1v1Zm5 3h1v-2l-1 1h-1v-1h2v-2h-2l-1 1v2h1l1 1Zm-1-3h2l-1-1a1 1 0 0 0-1 1Zm5 3v-1h1v-1l-1 1h-1v-2l1-1v1h1v-1h-2l-1 1v2h1l1 1Zm3-2v2h-1v-6h1v4l1-2h1l-1 1 1 3-2-2Zm4-3v-1h-1v1h1Zm0 1v4h-1v-4h1Zm2 4v-4h1v4h1v-4h-3v4h1Zm6 1h-3v-3h1-1a1 1 0 0 1 0-2h1a3 3 0 0 1 1 0h2-1a1 1 0 0 1 0 1v1h-2v1h2l1 1-1 1Zm-1-3-1-1v-1h1l1 1h-1v1Zm-1 2h2v-1h-2v1ZM499 524v2h-2v-2h-1l-2-1-2-4h2l1 2 3 1 1-1h1l1-1-1-2-2-1h-2l-3-2-1-2 1-3 2-1 2-1v-2h2v2l1 1 2 1 1 2-2 1-1-2-2-1h-1l-2 1v3h2l3 1 2 2 1 2-1 3-1 1h-1l-1 1Zm17-3v2h-11v-2a4 4 0 0 1 2-3l1-1a55 55 0 0 1 4-2l1-1v-1l-1-2-2-1-2 1-1 2h-2l1-2 1-2 3-1 3 1 2 1 1 3a4 4 0 0 1-2 3l-1 1a48 48 0 0 1-4 2l-1 1v1h8Zm2 5 2-3v-2h-3v2h1l-1 3h1Zm13-3-3 1-3-1-2-1a4 4 0 0 1 0-4l1-2h1l-1-2-1-2 1-2 1-1 3-1 3 1 2 1v4l-2 2h1l1 2 1 1-1 3-2 1Zm-3-8-2-1-1-2 1-2h4l1 2-1 2-2 1Zm-2 6 2 1 3-1v-3l-1-1h-4l-1 1v1l1 2Zm15 2v-15h-2v1l-1 1h-3v2h3v11h3Zm12-1-4 2-4-2-1-6v-4l2-3 3-1 4 2 2 6-2 6Zm-4 0-2-2-1-4 1-5 2-1 3 1v9l-3 2Zm10-1v2h-2v-2h2Zm8 3 3-1 2-2 1-3-1-2-2-2h-4l-2 1v-5h8v-2h-10v8l2 1 1-1h1l1-1 2 1 1 1v2l-1 2-2 1-2-1-1-1-1-1-2 1 1 2 2 1 3 1Zm16-1-3 1-2-1-2-1-2-2 2-1 1 1 1 1 2 1 3-1v-2a3 3 0 0 0-1-3l-2-1-1 1h-1l-1 1-2-1 1-8h9v2h-7l-1 5 2-1h4a5 5 0 0 1 3 4l-1 3-2 2Z" fill="#fff"/><rect x="545.7" y="432.2" width="43.8" height="25" rx="12" fill="url(#A)"/><path fill-rule="evenodd" clip-rule="evenodd" d="m568 440-5 10h3l5-10h-3Z" fill="#fff"/><path fill-rule="evenodd" clip-rule="evenodd" d="m562 444-2 2h14l1-2h-13ZM563 179l-9 16h5l9-16h-5Z" fill="#fff"/><path opacity=".5" fill-rule="evenodd" clip-rule="evenodd" d="m569 179-9 16h5l9-16h-5Z" fill="#fff"/><path opacity=".1" fill-rule="evenodd" clip-rule="evenodd" d="m575 179-9 16h5l9-16h-5Z" fill="#fff"/><path fill-rule="evenodd" clip-rule="evenodd" d="M657 155h-8v1h-1v1h1-1v1h1-2 2v3h4v1h1v-1h3v-3h2-1v-1l1-1h-2v-1Zm2 6h6v-6l-6 6ZM491 159l-1 1-1-1h-1v-3l1-1h2l1 1v3h-1Zm-11-4v5h-1v-4 1l-1-1 2-1Zm5 4v1h-1v-1h-3v-1l3-3h1v4Zm-1-1h-2l2-2v2Zm3-1h-1v-1h1v1Zm0 3v-1h-1v1h1Zm3-1h-1v-3h2v3h-1Zm6-3-2 4-1-1 2-3h-2v-1h3v1Z" fill="#fff"/></g><g filter="url(#B)"><path fill-rule="evenodd" clip-rule="evenodd" d="M736 382h167c16 0 29 13 29 28v381c0 15-13 28-29 28H736c-16 0-29-13-29-28V410c0-15 13-28 29-28Z" fill="#000105"/></g><path opacity=".6" fill-rule="evenodd" clip-rule="evenodd" d="M903 382H735c-7 0-15 4-21 11 4-4 12-9 22-9h167c10 0 18 5 22 9-7-7-14-11-22-11Z" fill="url(#C)" fill-opacity=".7"/><path opacity=".7" fill-rule="evenodd" clip-rule="evenodd" d="M903 819H735c-8-1-15-4-20-9 4 3 11 7 21 7h167c10 0 17-5 22-8-6 6-13 9-22 10Z" fill="url(#D)" fill-opacity=".7"/><path opacity=".6" fill-rule="evenodd" clip-rule="evenodd" d="M716 811c5 3 11 6 17 6h174c6 0 11-2 16-5-5 4-12 7-19 7H736c-8 0-15-3-20-8Z" fill="url(#E)"/><path opacity=".8" fill-rule="evenodd" clip-rule="evenodd" d="M927 787V412c0-10-4-13-6-16-2-2-2-3 1-2 3 2 10 7 10 18v375c0 10-7 16-10 18-3 1-3 0-1-2 2-3 6-6 6-16Z" fill="url(#F)"/><path opacity=".8" fill-rule="evenodd" clip-rule="evenodd" d="M712 787V412c0-10 3-13 6-16 2-2 2-3-1-2-3 2-10 7-10 18v375c0 10 7 16 10 18 3 1 3 0 1-2-3-3-6-6-6-16Z" fill="url(#G)"/><ellipse cx="819.1" cy="398" rx="4.3" ry="4.1" fill="#181819"/><g opacity=".5" filter="url(#H)"><ellipse cx="819.1" cy="398" rx="4.3" ry="4.1" fill="#000"/></g><g opacity=".7"><ellipse cx="819.1" cy="398" rx="3.2" ry="3.1" fill="#1E1939"/><ellipse cx="819.1" cy="398" rx="2.1" ry="1.9" fill="#342B64"/><ellipse cx="819.1" cy="398" rx=".9" ry=".8" fill="#51439F"/><circle opacity=".3" cx="818.3" cy="397.2" fill="#fff" r=".6"/></g><path fill-rule="evenodd" clip-rule="evenodd" d="M800 393h-65c-10 0-17 6-17 15v369c0 12 11 22 23 22h156c12 0 24-10 24-22V409c0-10-8-16-17-16h-66s-5 2-7 6c-1 5-5 9-9 9h-5c-2 0-8-2-10-9-3-6-7-6-7-6Z" fill="#E3ECF6"/><mask id="I" style="mask-type:alpha" maskUnits="userSpaceOnUse" x="718" y="392" width="203" height="407"><path fill-rule="evenodd" clip-rule="evenodd" d="M800 393h-65c-10 0-17 6-17 15v369c0 12 11 22 23 22h156c12 0 24-10 24-22V409c0-10-8-16-17-16h-66s-5 2-7 6c-1 5-5 9-9 9h-5c-2 0-8-2-10-9-3-6-7-6-7-6Z" fill="#fff"/></mask><g mask="url(#I)"><path fill="#F7F7F7" d="M718 393h203v406H718z"/><path fill="url(#J)" d="M718 393h203v94H718z"/><rect x="729.9" y="463" width="179.2" height="50" rx="4" fill="#fff"/><path fill-rule="evenodd" clip-rule="evenodd" d="M782 479v3-6 3a1 1 0 0 1 1-1h2v4h-1v-3h-2Zm-3 3h1a2 2 0 0 0 1-1v-1h-1v1h-2l-1-2v-1l1-1h1l1 1h1a2 2 0 0 0-1-1l-1-1-2 1v1l-1 1 1 2 2 1Zm-35-2v2h-1l2-6h1l2 6h-1l-1-2h-2Zm0 0h2l-1-3-1 3Zm6 2a1 1 0 0 0 1-1h-2v-2h2l-1-1h-1l-1 1v2l1 1h1Zm4 0h-1l-1-1v-2l1-1h1a1 1 0 0 1 1 1h-2l-1 1 1 1h2a1 1 0 0 1-1 1Zm3 0h1l1-1v-2l-1-1h-2v4h1Zm0-1h1v-2h-2v2h1Zm4 1h1v-1 1h1v-4h-1v3h-1l-1-1v-2 3l1 1Zm4-3v3h-1v-4h1v1a1 1 0 0 1 0-1h1l1 1v3h-1v-3h-1Zm4 3a3 3 0 0 0 1 0v-1h-1v-2h1v-1h-1v-1h-1v4l1 1Zm5-6v6h-1v-4h-1v-1h1v-1h1Zm13 6h1l1-1h-3v-1h3v-1l-1-1h-2v1l-1 1 1 1v1h1Zm-1-2h2v-1l-1-1a1 1 0 0 0-1 1v1Zm5 2h1v-1h1-3v-2h3-1v-1h-2v1l-1 1 1 1v1h1Zm3-1v1h-1v-6h1v4l2-2h1l-2 1 2 3h-1l-1-2-1 1Zm4-4v-1 1Zm0 1v4-4Zm2 4v-3h2v3h1v-3h-1v-1h-1a1 1 0 0 0-1 1v-1h-1v4h1Zm7 1h-3l-1-1 1-1v-1a1 1 0 0 1 0-2 3 3 0 0 1 2 0 5 5 0 0 0 1 0v2h-3v1a4 4 0 0 0 1 0h2v2Zm-2-3h-1v-1h1v-1l1 1v1h-1Zm-1 2 1 1 1-1v-1h-2v1Z" fill="#9597A5"/><path fill-rule="evenodd" clip-rule="evenodd" d="M748 499v1h-1v-1l-1-1h-1l-2-2h2l1 1h3v-2l-1-1h-2l-2-1v-3l1-1h2v-2h1v2h1l1 1 1 1h-2v-1h-3l-1 1 1 1 1 1h1l2 1 1 2-1 1-1 1h-1v1Zm10-1-2 1-2-1-2-1a2 2 0 0 1 0-2l1-1 1-1h-1l-1-2 1-1 1-1 2-1 2 1 1 1v3h-1l1 1v1l1 1-1 1-1 1Zm-2-5-2-1v-2h3l1 1-1 1-1 1Zm-2 4h3l1-1v-1l-1-1h-2l-1 1v2Zm10 2 2-1 1-2 1-3-1-2-1-2-2-1-2 1-1 1v3l1 2a4 4 0 0 0 3 0l1-1v-1 3l-1 1h-2l-1-1h-1v1l1 1 2 1Zm-1-6 1 1h1l1-1v-2l-1-1h-2l-1 1v1l1 1Zm9 6 2-1 2-2v-5l-2-2-2-1-1 1-2 1v3l2 2a4 4 0 0 0 2 0l1-1 1-1-1 3v1h-3l-1-1h-1v1l2 1 1 1Zm-1-6 1 1h1l1-1v-2l-1-1h-2v1l-1 1 1 1Zm8 5v-1h-2v1h2Zm4-9h1v9h-2v-7h-2v-1h2v-1h1Zm9 9v-2h1v-1h-1v-6h-2l-4 6v1h4v2h2Zm-5-3h3v-5l-3 5Z" fill="#2D314D"/><rect x="729.9" y="521.3" width="179.2" height="50" rx="4" fill="#fff"/><path fill-rule="evenodd" clip-rule="evenodd" d="M776 540v-1h-3v-1h1a19 19 0 0 0 1-1l1-1-1-1h-2l-1 1h1l1-1 1 1v1h-1a17 17 0 0 0-1 1l-1 1v1h4Zm-32 0v-1h2l1 1h1l-2-5h-1l-2 5h1Zm2-2h-2l1-2 1 2Zm4 2h-1l-1-1v-2a2 2 0 0 1 2-1 1 1 0 0 1 1 2h-1v-1h-1v2l1 1a1 1 0 0 0 1-1 1 1 0 0 1-1 1Zm3 0h2v-1h-1l-1 1v-1l-1-1 1-1h1v1h1v-1l-1-1h-1l-1 1v2l1 1Zm5 0h-2v-4h2l1 1v2l-1 1Zm-1 0v-1h-1v-2h2v2l-1 1Zm5 0h-2a1 1 0 0 1 0-1v-3 3h1v1l1-1v-3h1v4h-1v-1 1Zm3 0v-3h1v3h1v-3l-1-1h-1a1 1 0 0 0 0 1v-1h-1v4h1Zm5 0h-2v-5h1v1h1v1h-1v3h1Zm11 0h-2l-1-1h1l1 1 1-1v-1h-2l-1-1v-2h3l1 1h-1l-1-1-1 1v1h2a1 1 0 0 1 1 1v1l-1 1Zm3 0h1v-1 1h1v-3l-1-1h-2v1h2v1h-2v2h1Zm0-1v1l1-1v-1h-1l-1 1h1Zm4 1 2-4h-1l-1 3-1-3h-1l2 4Zm3-5v1h-1v-1h1Zm0 5v-4h-1v4h1Zm2-2v2h-1v-4h1v1a1 1 0 0 1 1-1h1v4-2l-1-1h-1v1Zm5 3h1l1-1-1-1a23 23 0 0 0-2 0 1 1 0 0 1 1 0l1-1a1 1 0 0 0 0-1h1v-1h-1v1-1h-2l-1 1v1l1 1h-1 1v1h-1v1h2Zm-1-3h1l1-1h-2v1Zm1 3h-1v-1h2v1h-1Zm5-1h-2l-1-1h1a1 1 0 0 0 1 1l1-1h-1l-1-1-1-1h1v-1h1l1 1h-2v1h2v1a1 1 0 0 1 0 1Z" fill="#9597A5"/><path fill-rule="evenodd" clip-rule="evenodd" d="M748 557v1h-1v-1h-1l-1-1-2-2h2l1 1 1 1 1-1h1v-2h-1l-2-1-2-1v-3l1-1h2v-1h1v1h1l1 1 1 2h-2v-2h-3l-1 1v1h1l1 1h1l2 1 1 2-1 2-1 1h-1Zm8-2-1 2h-1v-2a21 21 0 0 1 3-7h-5v-1h7v1a16 16 0 0 0-2 4 27 27 0 0 0-1 3Zm10 2v-3h1v-1h-1v-6h-2l-4 6v1h4v3h2Zm-5-4h3v-4l-3 4Zm8 6 1-2v-2h-2v2h1l-1 2h1Zm6-12v10h-2v-8h-2v-1h2l1-1h1Zm5 10 2-1 2-1v-6l-2-2h-4l-1 1v4l1 1a4 4 0 0 0 3 0h1l1-1-1 2-1 1-1 1-1-1-1-1h-1v2l1 1h2Zm-1-5h2l1-1v-2l-1-1h-1a2 2 0 0 0-1 1l-1 1 1 2Zm9 5 2-1 2-1v-6l-1-2h-4l-2 1v4l2 1a4 4 0 0 0 2 0h1l1-1v2l-1 1-2 1-1-1-1-1h-1l1 2 1 1h1Zm-1-5h2l1-1 1-1-1-1v-1h-2l-1 1v3Zm8 5v-2h-2v2h2Zm7-1-2 1a3 3 0 0 1-3-2l-1-3 1-3 1-2h4l1 1 1 1h-2v-1h-3l-1 2v2l1-1 1-1 2 1 1 1 1 2-1 1-1 1Zm-2 0-1-1h-1v-3a2 2 0 0 1 2 0h1l1 1v2a2 2 0 0 1-2 1Zm7-9h1v10h-1v-8h-2v-1h2v-1Z" fill="#2D314D"/><rect x="729.9" y="696.3" width="179.2" height="50" rx="4" fill="#fff"/><path fill-rule="evenodd" clip-rule="evenodd" d="M782 713v2-5 2a1 1 0 0 1 1-1h1l1 1v3h-1v-3h-2v1Zm-3 2h1a2 2 0 0 0 1-1v-1h-1v1h-2l-1-2v-1h1l1-1v1h2a2 2 0 0 0-1-1h-3v1l-1 1 1 2v1h2Zm-35-1v1h-1l2-5h1l2 5h-1l-1-1h-2Zm0-1h2l-1-2-1 2Zm6 2h1v-1h-1a1 1 0 0 1 0 1l-1-1v-2h1v1h1v-1l-1-1h-1l-1 1v2l1 1h1Zm4 0h-1l-1-1v-2l1-1h1a1 1 0 0 1 1 2h-1v-1h-1l-1 1 1 1v1l1-1h1a1 1 0 0 1-1 1Zm3 0h1l1-1v-2l-1-1h-2v4h1Zm0-1v1l1-1v-2h-2v2h1Zm4 1h1v-1 1h1v-4h-1v3l-1 1v-1h-1v-3 4h1Zm4-2v2h-1v-4h1v1a1 1 0 0 1 0-1h1l1 1v3h-1v-3h-1v1Zm4 2a2 2 0 0 0 1 0h-1v-3h1v-1h-1v-1h-1v5h1Zm5-5v5h-1v-4h-1v-1h2Zm13 5h2v-1h-1l-1 1v-1h-1v-1h3v-1l-1-1h-2v1l-1 1 1 1v1h1Zm-1-2h2v-1h-1a1 1 0 0 0-1 0v1Zm5 2h1l1-1h-1l-1 1-1-1v-2h2v1h1l-1-1v-1h-2v1l-1 1 1 1v1h1Zm3-1v1h-1v-5h1v3l2-2h1l-2 2 2 2h-1l-1-2-1 1Zm4-3v-1 1Zm0 0v4-4Zm2 4v-3h2v3h1v-2l-1-1v-1h-1a1 1 0 0 0-1 1v-1h-1v4h1Zm7 1h-3l-1-1h1v-2a1 1 0 0 1 0-1v-1a3 3 0 0 1 2 0v1a5 5 0 0 0 1-1v2h-1l-1 1h-1a4 4 0 0 0 1 0h2v2Zm-2-3h-1v-1h2v1h-1Zm-1 3h2v-1h-2v1Z" fill="#9597A5"/><path fill-rule="evenodd" clip-rule="evenodd" d="M748 732v1h-1v-1h-1l-1-1-2-2h2l1 1 1 1 1-1h1v-2h-1l-2-1-2-1v-3l1-1h2v-1h1v1h1l1 1 1 2h-2v-2h-3l-1 1v1h1l1 1h1l2 1 1 2-1 2-1 1h-1Zm10 0h-4l-2-1a2 2 0 0 1 0-3l1-1h1l-1-1-1-1 1-2 1-1h4l1 1v3l-1 1h1v1l1 1-1 2-1 1Zm-2-6h-2v-3h3l1 1-1 2h-1Zm-2 4 2 1 1-1 1-1v-1h-1l-1-1-1 1h-1v2Zm10 2 2-1 1-1 1-3-1-3-1-2h-4l-1 1v4l1 1a4 4 0 0 0 3 0h1v-1 2l-1 1-1 1-1-1-1-1h-1v2l1 1h2Zm-1-5h2l1-1v-2l-1-1h-2l-1 1v1l1 2Zm9 5 2-1 2-1v-6l-2-2h-3l-2 1v4l2 1a4 4 0 0 0 2 0h1l1-1-1 2v1l-2 1-1-1-1-1h-1v2l2 1h1Zm-1-5h2l1-1v-2l-1-1h-2v1l-1 1 1 2Zm8 5v-2h-2v2h2Zm4-10h1v10h-2v-8h-2v-1h2l1-1Zm9 10v-3h1v-1h-1v-6h-2l-4 6v1h4v3h2Zm-5-4h3v-4l-3 4Z" fill="#2D314D"/><rect x="729.9" y="754.7" width="179.2" height="50" rx="4" fill="#fff"/><path fill-rule="evenodd" clip-rule="evenodd" d="M776 773h-3v-1l1-1a19 19 0 0 0 1 0v-1h1l-1-1v-1h-2l-1 1v1h1v-1h2v1h-1v1a19 19 0 0 0-1 1h-1v1h4Zm-32 0v-1h2l1 1h1l-2-5h-1l-2 5h1Zm2-2h-2l1-2 1 2Zm4 2h-2v-2a2 2 0 0 1 2-1 1 1 0 0 1 1 1h-1v-1l-1 1v2h1l1-1a1 1 0 0 1-1 1Zm3 0h2v-1h-1a1 1 0 0 1-1 1l-1-1 1-1v-1h1v1h1v-1h-2l-1 1v2h1Zm5 0h-2v-3h3v3h-1Zm-1 0-1-1v-1l1-1h1v3h-1Zm5 0h-2a1 1 0 0 1 0-1v-2 2l1 1h1v-3h1v3h-1Zm3 0v-3h1v3h1v-3h-3v3h1Zm5 0h-2v-4h1v1h1-1v3h1Zm11 0h-3v-1h1v1h2v-2h-3v-2l1-1h2l1 1v1h-1v-1h-2v1h1l1 1a1 1 0 0 1 1 1v1h-1Zm3 0h2v-3h-3v1l1-1h1v1h-2v2h1Zm0 0h1v-1h-2l1 1Zm4 0 2-3h-1l-1 2-1-2h-1l2 3Zm3-5v1h-1v-1h1Zm0 5v-3h-1v3h1Zm2-2v2h-1v-3h1a1 1 0 0 1 1 0h1v3-2l-1-1h-1v1Zm5 4 1-1 1-1h-1v-1a34 34 0 0 0-2 0 1 1 0 0 1 1 0h1v-1a1 1 0 0 0 0-1h1v-1 1h-1a2 2 0 0 0-1 0h-2v1l1 1h-1v1h1-1v1l2 1Zm-1-4 1 1v-1h1l-1-1h-1v1Zm1 3h-1v-1h2v1h-1Zm5-1h-2l-1-1h1a1 1 0 0 0 1 1h1v-1h-2v-1h-1l1-1h2v1l-1-1h-1v1h2v1a1 1 0 0 1 0 1Z" fill="#9597A5"/><path fill-rule="evenodd" clip-rule="evenodd" d="M748 790v1h-1v-1h-2l-2-2 2-1 1 2h2l1-1v-1l-1-1h-2l-2-1v-3l1-1 1-1h1v-1h1v1l1 1 1 1 1 1h-2v-1l-2-1h-1v1h-1v1l1 1h1l1 1 2 1 1 2-1 1-1 1h-1Zm8-1-1 1h-1v-2a21 21 0 0 1 3-6h-5v-2h7v2a16 16 0 0 0-2 3 27 27 0 0 0-1 4Zm10 1v-2h1v-2h-1v-6h-2l-4 6v2h4v2h2Zm-5-4h3v-4l-3 4Zm8 6 1-2v-2h-2v2h1l-1 2h1Zm6-12v10h-2v-8h-2l2-1 1-1h1Zm5 10h2l2-2v-6l-2-1-2-1-2 1-1 1v3l1 1a4 4 0 0 0 3 0h1l1-1-1 2-1 2h-2l-1-1h-1v1l1 1h2Zm-1-5h3v-3h-1l-1-1a2 2 0 0 0-1 1l-1 1 1 2Zm9 5h2l2-2v-6l-1-1-3-1-1 1-2 1v3l2 1a4 4 0 0 0 2 0h1l1-1v2l-1 2h-3l-1-1h-1l1 1 1 1h1Zm-1-5h3l1-1-1-2-1-1a2 2 0 0 0-2 1v3Zm8 5v-2h-2v2h2Zm7 0h-2a3 3 0 0 1-3-2l-1-3 1-2 1-2 2-1h2l1 1 1 2h-2v-1l-2-1-1 1-1 1v2h1v-1h3l1 1 1 2-1 2-1 1Zm-2-1h-1l-1-1v-2a2 2 0 0 1 2-1h1l1 1v2a2 2 0 0 1-2 1Zm7-9h1v10h-1v-8h-2l1-1h1v-1Z" fill="#2D314D"/><rect x="729.9" y="579.7" width="179.2" height="50" rx="4" fill="#fff"/><path fill-rule="evenodd" clip-rule="evenodd" d="M784 596v2h-1v-5h1v2h2v3h-1v-3h-1v1Zm-8 2h-4v-1h1v-1a19 19 0 0 1 1-1h1v-1h-2v1h-1v-1l1-1h2v1l1 1a2 2 0 0 1-1 1 19 19 0 0 1-2 1v1h3Zm-32-1v1h-1l2-5h1l2 5h-1l-1-1h-2Zm0-1h2l-1-2-1 2Zm6 2h1v-1l-1 1h-1v-2l1-1v1h1v-1h-2l-1 1v2h2Zm4 0h-2v-2l1-1h1a1 1 0 0 1 1 1h-1v-1h-1v1l-1 1 1 1h1v-1h1a1 1 0 0 1-1 1Zm3 0h2v-3h-3v3h1Zm0 0h1v-3h-1l-1 1v1l1 1Zm4 0h2v-3h-1v3h-1l-1-1v-2 3h1Zm4-2v2h-1v-3h3v3h-1v-3h-1v1Zm4 2a2 2 0 0 0 1 0h-1v-3h1-1v-1h-1v4h1Zm11 0h1a2 2 0 0 0 1-1h-1v1h-1l-1-1v-3h2v1h1a2 2 0 0 0-1-2h-2l-1 1v3l1 1h1Zm9 0h1v-1l-1 1h-1v-1h2v-2h-2l-1 1v2h2Zm-1-2h2-1a1 1 0 0 0 0-1 1 1 0 0 0-1 1Zm5 2h1v-1h-1a1 1 0 0 1 0 1h-1v-2l1-1v1h1v-1h-2l-1 1v2h2Zm3-1v1h-1v-5h1v3l1-1h1l-1 1 1 2h-1l-1-1Zm4-3v-1h-1v1h1Zm0 1v3h-1v-3h1Zm2 3v-3h1v3h1v-3h-3v3h1Zm6 1-1 1-2-1v-2h1l-1-1a1 1 0 0 1 0-1h1a3 3 0 0 1 1 0h1l1-1v1h-1a1 1 0 0 1 0 1l-1 1h-1a4 4 0 0 0 1 0l1 1v1Zm-1-2-1-1v-1h1v2Zm-1 2h2v-1h-3v1h1Z" fill="#9597A5"/><path fill-rule="evenodd" clip-rule="evenodd" d="M748 616v-1h1l1-1 1-1-1-2-2-1-1-1h-1l-1-1v-1h1v-1h1l2 1v1h2l-1-1-1-1-1-1v-1h-1v1h-1l-1 1-1 1v3l2 1h2l1 1v1l-1 1h-2l-1-2-2 1 2 2h2v1h1Zm7-1v-10h-1v1h-1l-1 1h2v8h1Zm4 0-1 2h-1l1-2h-1v-2h2v2Zm5 0h2l1-2 1-3-1-3-1-1-2-1-2 1-1 1v3l1 1a4 4 0 0 0 3 0h1v-1 2l-1 2h-2l-1-1h-1v1l1 1h2Zm-1-5h3v-3h-1l-1-1a2 2 0 0 0-2 1v1l1 2Zm9-5h-1v1h-1l-1 1h2v8h1v-10Zm5 0h1v10h-2v-8h-2l2-1 1-1Zm4 10v-2h-1v2h1Zm8-2v2h-2v-2h-4v-2l4-6h2v6h1v2h-1Zm-2-2h-3l3-4v4Zm6-6h1v10h-1v-8h-2l1-1h1v-1Z" fill="#2D314D"/><rect x="729.9" y="638" width="179.2" height="50" rx="4" fill="#fff"/><path fill-rule="evenodd" clip-rule="evenodd" d="M776 657v-1h-3v-1h1a16 16 0 0 0 1-1l1-1-1-1-1-1-1 1h-1v1h1v-1h2v1l-1 1a21 21 0 0 0-1 1h-1v2h4Zm-32 0v-2h2l1 2h1l-2-6h-1l-2 6h1Zm2-2h-2l1-3 1 3Zm4 2h-1l-1-1v-2a2 2 0 0 1 2-1 1 1 0 0 1 1 1h-2v2h2a1 1 0 0 1-1 1Zm3 0h1l1-1h-2l-1-1 1-1h2l-1-1h-1l-1 1v2l1 1Zm5 0h-2v-4h2l1 1v2l-1 1Zm-1-1h-1v-2h2v2h-1Zm5 1h-1l-1-1v-3 2l1 1h1v-3h1v4h-1v-1 1Zm3 0v-3h1v3h1v-3l-1-1h-1a1 1 0 0 0 0 1v-1h-1v4h1Zm5 0h-1l-1-1v-4h1v1h1v1h-1v2h1v1Zm11 0h-2v-1h-1v-1h1v1h2v-1h-1l-1-1h-1v-2h1l1-1 1 1h1v1h-1v-1h-2v1l1 1h1a1 1 0 0 1 1 1v1l-1 1Zm3 0h1v-1 1h1v-4h-3v1h1v-1l1 1h-1l-1 1v2h1Zm0-1h1v-1h-2v1h1Zm4 1 2-4h-1l-1 3-1-3h-1l2 4Zm3-6v1h-1v-1h1Zm0 6v-4h-1v4h1Zm2-3v3h-1v-4h1v1a1 1 0 0 1 1-1h1v4-3h-2Zm5 4h1l1-1-1-1a23 23 0 0 0-2 0v-1a1 1 0 0 1 1 0h1a1 1 0 0 0 0-1h1v-1h-1a2 2 0 0 0-1 0h-2v2h1-1v1h1-1v2h2Zm-1-3h1l1-1h-1v-1l-1 1v1Zm1 3-1-1a1 1 0 0 1 0-1h1l1 1-1 1Zm5-1h-2v-1h-1 1a1 1 0 0 0 1 0h1v-1h-2l-1-1 1-1h2v1h-1v-1l-1 1h1l1 1a1 1 0 0 1 0 1v1Z" fill="#9597A5"/><path fill-rule="evenodd" clip-rule="evenodd" d="M748 674v1h-1v-1l-1-1h-1l-2-2h2l1 1h3v-2l-1-1h-2l-2-1v-3l1-1h2v-2h1v2h1l1 1 1 1h-2v-1h-3l-1 1 1 1 1 1h1l2 1 1 2-1 1-1 1h-1v1Zm11-2v1h-7v-2l1-1 1-1a36 36 0 0 1 2-1l1-1v-2h-3l-1 2h-1v-2l2-1 2-1 1 1 1 1 1 1a3 3 0 0 1-1 3h-1a33 33 0 0 1-2 1l-1 1v1h5Zm5 2 2-2 1-3-1-4-2-2-2 1-2 2v3l1 3c1 1 1 2 3 2Zm-2-3 2 1 1-1 1-2-1-3-1-1-2 1v5Zm7 4 1-2v-1h-2v1h1l-1 2h1Zm8-4v2h-1v-2h-5v-1l5-6h1v6h2v1h-2Zm-1-1h-3l3-5v5Zm7 2v1h-2l1-1a21 21 0 0 1 3-7h-5v-1h7v1a16 16 0 0 0-2 3 27 27 0 0 0-2 4Zm9 2 2-1 1-1v-4l-1-1h-3l-1 1v-3h5v-1h-6l-1 5h2l1-1h2v1l1 1-1 2h-3v-1h-2l1 1 1 1 2 1Zm6-2v1h-2v-1h2Zm5 2 3-2v-3l-1-4-2-2-2 1-1 2-1 3 1 3 3 2Zm-2-3 2 1 1-1 1-2-1-3-1-1-2 1v5Zm10 3 3-2 1-3-1-4-3-2-2 1-1 2-1 3 1 3 3 2Zm-1-3 1 1 2-1v-5l-2-1-1 1-1 3 1 2Z" fill="#2D314D"/><g filter="url(#K)"><path fill="#fff" d="M718 756h203v42H718z"/></g><rect x="797.8" y="765.1" width="43.8" height="25" rx="12" fill="url(#L)"/><path fill-rule="evenodd" clip-rule="evenodd" d="m820 773-4 10h2l5-10h-3Z" fill="#fff"/><path fill-rule="evenodd" clip-rule="evenodd" d="m814 777-2 2h14l1-2h-13ZM815 422l-9 17h5l9-17h-5Z" fill="#fff"/><path opacity=".5" fill-rule="evenodd" clip-rule="evenodd" d="m821 422-9 17h5l9-17h-5Z" fill="#fff"/><path opacity=".1" fill-rule="evenodd" clip-rule="evenodd" d="m827 422-9 17h5l9-17h-5Z" fill="#fff"/><path fill-rule="evenodd" clip-rule="evenodd" d="M909 399h-8v1h-1v1h1v1-1l-2 1h2v3h4v1-1l1 1v-1h3v-3h2l-1-1v1-1l1-1h-2v-1Zm2 6h6v-6l-6 6ZM743 403l-1 1-1-1-1-1v-2l1-1h2l1 1v2l-1 1Zm-11-4v4-3h-2l2-1Zm5 4h-3v-1l2-3h1v4Zm-1-1h-1l1-2v2Zm3-1h-1v-1h1v1Zm0 2v-1h-1v1h1Zm3 0v-1h-1v-2l1-1 1 1v2l-1 1Zm6-3-2 4-1-1 2-3h-2v-1h3v1Z" fill="#fff"/></g><g filter="url(#M)"><path fill-rule="evenodd" clip-rule="evenodd" d="M484 601h167c16 0 29 12 29 28v381c0 15-13 28-29 28H484c-16 0-29-13-29-28V629c0-16 13-28 29-28Z" fill="#000105"/></g><path opacity=".6" fill-rule="evenodd" clip-rule="evenodd" d="M651 601H483c-8 0-15 4-21 10 4-3 11-8 22-8h167c10 0 18 5 22 8-7-6-14-10-22-10Z" fill="url(#N)" fill-opacity=".7"/><path opacity=".7" fill-rule="evenodd" clip-rule="evenodd" d="M651 1037H483c-8 0-15-3-20-9 4 4 10 8 21 8h167c10 0 17-5 22-8-6 6-13 9-22 9Z" fill="url(#O)" fill-opacity=".7"/><path opacity=".6" fill-rule="evenodd" clip-rule="evenodd" d="M464 1029c5 4 11 6 17 6h174c6 0 11-1 16-4-5 4-12 7-19 7H484c-8 0-15-3-20-9Z" fill="url(#P)"/><path opacity=".8" fill-rule="evenodd" clip-rule="evenodd" d="M675 1005V631c0-10-4-14-6-16s-2-4 1-2 9 7 9 18v374c0 11-6 16-9 18s-3 1-1-2c2-2 6-6 6-16Z" fill="url(#Q)"/><path opacity=".8" fill-rule="evenodd" clip-rule="evenodd" d="M460 1005V631c0-10 3-14 5-16 3-2 3-4 0-2-4 2-10 7-10 18v374c0 11 6 16 10 18 3 2 3 1 0-2-2-2-5-6-5-16Z" fill="url(#R)"/><ellipse cx="567.1" cy="616.8" rx="4.3" ry="4.1" fill="#181819"/><g opacity=".5" filter="url(#S)"><ellipse cx="567.1" cy="616.8" rx="4.3" ry="4.1" fill="#000"/></g><g opacity=".7"><ellipse cx="567.1" cy="616.8" rx="3.2" ry="3.1" fill="#1E1939"/><ellipse cx="567.1" cy="616.8" rx="2.1" ry="1.9" fill="#342B64"/><ellipse cx="567.1" cy="616.8" rx=".9" ry=".8" fill="#51439F"/><circle opacity=".3" cx="566.2" cy="616" fill="#fff" r=".6"/></g><path fill-rule="evenodd" clip-rule="evenodd" d="M548 611h-65c-10 0-17 7-17 16v369c0 12 11 22 23 22h156c12 0 24-11 24-22V628c0-11-8-17-17-17h-66s-5 2-7 7-5 8-10 8h-4c-2 0-8-1-10-8-3-7-7-7-7-7Z" fill="#E3ECF6"/><mask id="T" style="mask-type:alpha" maskUnits="userSpaceOnUse" x="466" y="611" width="203" height="407"><path fill-rule="evenodd" clip-rule="evenodd" d="M548 611h-65c-10 0-17 7-17 16v369c0 12 11 22 23 22h156c12 0 24-11 24-22V628c0-11-8-17-17-17h-66s-5 2-7 7-5 8-10 8h-4c-2 0-8-1-10-8-3-7-7-7-7-7Z" fill="#fff"/></mask><g mask="url(#T)"><path fill="#F7F7F7" d="M466 612h203v406H466z"/><path fill="url(#U)" d="M466 612h203v406H466z"/><path fill-rule="evenodd" clip-rule="evenodd" d="m556 794-22 41h12l23-41h-13Z" fill="#fff"/><path opacity=".5" fill-rule="evenodd" clip-rule="evenodd" d="m572 794-23 41h13l22-41h-12Z" fill="#fff"/><path opacity=".1" fill-rule="evenodd" clip-rule="evenodd" d="m587 794-23 41h13l22-41h-12Z" fill="#fff"/><path fill-rule="evenodd" clip-rule="evenodd" d="M657 617h-8v1h-1v1l1 1h-1 1-1l-1 1h2v2h3l1 1v1-1l1 1v-2h3v-2h2l-1-1v-1l1-1h-2v-1Zm2 6h6v-6l-6 6ZM491 622h-2l-1-1v-2l1-1 1-1 1 1 1 1v2l-1 1Zm-11-5v5h-1v-3l-1-1 2-1Zm5 4v1h-1v-1h-3l3-4h1v4Zm-1-1h-2l2-1v1Zm3 0h-1v-1h1v1Zm0 2v-1h-1v1h1Zm3-1h-1v-2l1-1 1 1v2h-1Zm6-3-2 4h-1l2-4h-2v-1h3v1Z" fill="#fff"/></g><defs><linearGradient id="b" x1="-455.9" y1="323.1" x2="76.8" y2="1335.3" gradientUnits="userSpaceOnUse"><stop stop-color="#33D35E"/><stop offset="1" stop-color="#2AB6D9"/></linearGradient><linearGradient id="d" x1="209.5" y1="381.8" x2="209.5" y2="392.5" gradientUnits="userSpaceOnUse"><stop stop-color="#454545"/><stop offset=".2" stop-color="#999"/><stop offset="1" stop-color="#fff"/></linearGradient><linearGradient id="e" x1="210.5" y1="818.7" x2="210.5" y2="809" gradientUnits="userSpaceOnUse"><stop stop-color="#454545"/><stop offset=".2" stop-color="#999"/><stop offset="1" stop-color="#fff"/></linearGradient><linearGradient id="f" x1="388.2" y1="816.9" x2="388.2" y2="823" gradientUnits="userSpaceOnUse"><stop stop-color="#fff" stop-opacity="0"/><stop offset="1" stop-color="#fff" stop-opacity=".6"/></linearGradient><linearGradient id="g" x1="427.3" y1="455.5" x2="419" y2="455.5" gradientUnits="userSpaceOnUse"><stop/><stop offset=".2" stop-color="#BABABA"/><stop offset=".5" stop-color="#000108"/><stop offset="1" stop-color="#060606"/></linearGradient><linearGradient id="h" x1="203" y1="455.5" x2="211.4" y2="455.5" gradientUnits="userSpaceOnUse"><stop/><stop offset=".2" stop-color="#BABABA"/><stop offset=".5" stop-color="#000108"/><stop offset="1" stop-color="#060606"/></linearGradient><linearGradient id="k" x1="113.1" y1="422" x2="144" y2="529.3" gradientUnits="userSpaceOnUse"><stop stop-color="#33D35E"/><stop offset="1" stop-color="#2AB6D9"/></linearGradient><linearGradient id="l" x1="136.5" y1="500.4" x2="179.9" y2="617" gradientUnits="userSpaceOnUse"><stop stop-color="#33D35E"/><stop offset="1" stop-color="#2AB6D9"/></linearGradient><linearGradient id="n" x1="271.8" y1="777.5" x2="293.3" y2="815.1" gradientUnits="userSpaceOnUse"><stop stop-color="#33D35E"/><stop offset="1" stop-color="#2AB6D9"/></linearGradient><linearGradient id="p" x1="461.6" y1="138" x2="461.6" y2="148.8" gradientUnits="userSpaceOnUse"><stop stop-color="#454545"/><stop offset=".2" stop-color="#999"/><stop offset="1" stop-color="#fff"/></linearGradient><linearGradient id="q" x1="462.6" y1="575" x2="462.6" y2="565.3" gradientUnits="userSpaceOnUse"><stop stop-color="#454545"/><stop offset=".2" stop-color="#999"/><stop offset="1" stop-color="#fff"/></linearGradient><linearGradient id="r" x1="640.3" y1="573.2" x2="640.3" y2="579.2" gradientUnits="userSpaceOnUse"><stop stop-color="#fff" stop-opacity="0"/><stop offset="1" stop-color="#fff" stop-opacity=".6"/></linearGradient><linearGradient id="s" x1="679.4" y1="211.7" x2="671.1" y2="211.7" gradientUnits="userSpaceOnUse"><stop/><stop offset=".2" stop-color="#BABABA"/><stop offset=".5" stop-color="#000108"/><stop offset="1" stop-color="#060606"/></linearGradient><linearGradient id="t" x1="455.1" y1="211.7" x2="463.4" y2="211.7" gradientUnits="userSpaceOnUse"><stop/><stop offset=".2" stop-color="#BABABA"/><stop offset=".5" stop-color="#000108"/><stop offset="1" stop-color="#060606"/></linearGradient><linearGradient id="w" x1="388.8" y1="148.3" x2="432.2" y2="264.9" gradientUnits="userSpaceOnUse"><stop stop-color="#33D35E"/><stop offset="1" stop-color="#2AB6D9"/></linearGradient><linearGradient id="x" x1="365.2" y1="178.2" x2="396.1" y2="285.5" gradientUnits="userSpaceOnUse"><stop stop-color="#33D35E"/><stop offset="1" stop-color="#2AB6D9"/></linearGradient><linearGradient id="z" x1="388.6" y1="506.6" x2="432" y2="623.2" gradientUnits="userSpaceOnUse"><stop stop-color="#33D35E"/><stop offset="1" stop-color="#2AB6D9"/></linearGradient><linearGradient id="A" x1="523.9" y1="444.7" x2="545.4" y2="482.2" gradientUnits="userSpaceOnUse"><stop stop-color="#33D35E"/><stop offset="1" stop-color="#2AB6D9"/></linearGradient><linearGradient id="C" x1="713.7" y1="381.8" x2="713.7" y2="392.5" gradientUnits="userSpaceOnUse"><stop stop-color="#454545"/><stop offset=".2" stop-color="#999"/><stop offset="1" stop-color="#fff"/></linearGradient><linearGradient id="D" x1="714.7" y1="818.7" x2="714.7" y2="809" gradientUnits="userSpaceOnUse"><stop stop-color="#454545"/><stop offset=".2" stop-color="#999"/><stop offset="1" stop-color="#fff"/></linearGradient><linearGradient id="E" x1="892.4" y1="816.9" x2="892.4" y2="823" gradientUnits="userSpaceOnUse"><stop stop-color="#fff" stop-opacity="0"/><stop offset="1" stop-color="#fff" stop-opacity=".6"/></linearGradient><linearGradient id="F" x1="931.5" y1="455.5" x2="923.2" y2="455.5" gradientUnits="userSpaceOnUse"><stop/><stop offset=".2" stop-color="#BABABA"/><stop offset=".5" stop-color="#000108"/><stop offset="1" stop-color="#060606"/></linearGradient><linearGradient id="G" x1="707.2" y1="455.5" x2="715.5" y2="455.5" gradientUnits="userSpaceOnUse"><stop/><stop offset=".2" stop-color="#BABABA"/><stop offset=".5" stop-color="#000108"/><stop offset="1" stop-color="#060606"/></linearGradient><linearGradient id="J" x1="617.3" y1="439.6" x2="688.4" y2="593.4" gradientUnits="userSpaceOnUse"><stop stop-color="#33D35E"/><stop offset="1" stop-color="#2AB6D9"/></linearGradient><linearGradient id="L" x1="776" y1="777.5" x2="797.5" y2="815.1" gradientUnits="userSpaceOnUse"><stop stop-color="#33D35E"/><stop offset="1" stop-color="#2AB6D9"/></linearGradient><linearGradient id="N" x1="461.6" y1="600.5" x2="461.6" y2="611.3" gradientUnits="userSpaceOnUse"><stop stop-color="#454545"/><stop offset=".2" stop-color="#999"/><stop offset="1" stop-color="#fff"/></linearGradient><linearGradient id="O" x1="462.6" y1="1037.5" x2="462.6" y2="1027.8" gradientUnits="userSpaceOnUse"><stop stop-color="#454545"/><stop offset=".2" stop-color="#999"/><stop offset="1" stop-color="#fff"/></linearGradient><linearGradient id="P" x1="640.3" y1="1035.7" x2="640.3" y2="1041.7" gradientUnits="userSpaceOnUse"><stop stop-color="#fff" stop-opacity="0"/><stop offset="1" stop-color="#fff" stop-opacity=".6"/></linearGradient><linearGradient id="Q" x1="679.4" y1="674.2" x2="671.1" y2="674.2" gradientUnits="userSpaceOnUse"><stop/><stop offset=".2" stop-color="#BABABA"/><stop offset=".5" stop-color="#000108"/><stop offset="1" stop-color="#060606"/></linearGradient><linearGradient id="R" x1="455.1" y1="674.2" x2="463.4" y2="674.2" gradientUnits="userSpaceOnUse"><stop/><stop offset=".2" stop-color="#BABABA"/><stop offset=".5" stop-color="#000108"/><stop offset="1" stop-color="#060606"/></linearGradient><linearGradient id="U" x1="365.2" y1="813.7" x2="688.3" y2="974.9" gradientUnits="userSpaceOnUse"><stop stop-color="#33D35E"/><stop offset="1" stop-color="#2AB6D9"/></linearGradient><filter id="a" x=".4" y="232" width="1214.6" height="803" filterUnits="userSpaceOnUse" color-interpolation-filters="sRGB"><feFlood flood-opacity="0" result="BackgroundImageFix"/><feColorMatrix in="SourceAlpha" values="0 0 0 0 0 0 0 0 0 0 0 0 0 0 0 0 0 0 127 0" result="hardAlpha"/><feOffset dy="2"/><feGaussianBlur stdDeviation="38.5"/><feColorMatrix values="0 0 0 0 0 0 0 0 0 0 0 0 0 0 0 0 0 0 0.0240111 0"/><feBlend in2="BackgroundImageFix" result="effect1_dropShadow_1557_2"/><feBlend in="SourceGraphic" in2="effect1_dropShadow_1557_2" result="shape"/></filter><filter id="c" x="173" y="372.2" width="284.4" height="496.5" filterUnits="userSpaceOnUse" color-interpolation-filters="sRGB"><feFlood flood-opacity="0" result="BackgroundImageFix"/><feColorMatrix in="SourceAlpha" values="0 0 0 0 0 0 0 0 0 0 0 0 0 0 0 0 0 0 127 0" result="hardAlpha"/><feOffset dy="20"/><feGaussianBlur stdDeviation="15"/><feColorMatrix values="0 0 0 0 0 0 0 0 0 0 0 0 0 0 0 0 0 0 0.15 0"/><feBlend in2="BackgroundImageFix" result="effect1_dropShadow_1557_2"/><feBlend in="SourceGraphic" in2="effect1_dropShadow_1557_2" result="shape"/></filter><filter id="i" x="310.7" y="393" width="8.6" height="10.2" filterUnits="userSpaceOnUse" color-interpolation-filters="sRGB"><feFlood flood-opacity="0" result="BackgroundImageFix"/><feBlend in="SourceGraphic" in2="BackgroundImageFix" result="shape"/><feColorMatrix in="SourceAlpha" values="0 0 0 0 0 0 0 0 0 0 0 0 0 0 0 0 0 0 127 0" result="hardAlpha"/><feOffset/><feGaussianBlur stdDeviation="2.5"/><feComposite in2="hardAlpha" operator="arithmetic" k2="-1" k3="1"/><feColorMatrix values="0 0 0 0 1 0 0 0 0 1 0 0 0 0 1 0 0 0 0.048998 0"/><feBlend in2="shape" result="effect1_innerShadow_1557_2"/><feColorMatrix in="SourceAlpha" values="0 0 0 0 0 0 0 0 0 0 0 0 0 0 0 0 0 0 127 0" result="hardAlpha"/><feOffset dy="1"/><feGaussianBlur stdDeviation=".5"/><feComposite in2="hardAlpha" operator="arithmetic" k2="-1" k3="1"/><feColorMatrix values="0 0 0 0 0.992214 0 0 0 0 0.992214 0 0 0 0 0.992214 0 0 0 0.160128 0"/><feBlend in2="effect1_innerShadow_1557_2" result="effect2_innerShadow_1557_2"/><feColorMatrix in="SourceAlpha" values="0 0 0 0 0 0 0 0 0 0 0 0 0 0 0 0 0 0 127 0" result="hardAlpha"/><feOffset dy="-1"/><feGaussianBlur stdDeviation=".5"/><feComposite in2="hardAlpha" operator="arithmetic" k2="-1" k3="1"/><feColorMatrix values="0 0 0 0 1 0 0 0 0 1 0 0 0 0 1 0 0 0 0.438208 0"/><feBlend in2="effect2_innerShadow_1557_2" result="effect3_innerShadow_1557_2"/></filter><filter id="m" x="194" y="738.3" width="242.6" height="81.7" filterUnits="userSpaceOnUse" color-interpolation-filters="sRGB"><feFlood flood-opacity="0" result="BackgroundImageFix"/><feColorMatrix in="SourceAlpha" values="0 0 0 0 0 0 0 0 0 0 0 0 0 0 0 0 0 0 127 0" result="hardAlpha"/><feOffset dy="2"/><feGaussianBlur stdDeviation="10"/><feColorMatrix values="0 0 0 0 0 0 0 0 0 0 0 0 0 0 0 0 0 0 0.153846 0"/><feBlend in2="BackgroundImageFix" result="effect1_dropShadow_1557_2"/><feBlend in="SourceGraphic" in2="effect1_dropShadow_1557_2" result="shape"/></filter><filter id="o" x="425.1" y="128.5" width="284.4" height="496.5" filterUnits="userSpaceOnUse" color-interpolation-filters="sRGB"><feFlood flood-opacity="0" result="BackgroundImageFix"/><feColorMatrix in="SourceAlpha" values="0 0 0 0 0 0 0 0 0 0 0 0 0 0 0 0 0 0 127 0" result="hardAlpha"/><feOffset dy="20"/><feGaussianBlur stdDeviation="15"/><feColorMatrix values="0 0 0 0 0 0 0 0 0 0 0 0 0 0 0 0 0 0 0.15 0"/><feBlend in2="BackgroundImageFix" result="effect1_dropShadow_1557_2"/><feBlend in="SourceGraphic" in2="effect1_dropShadow_1557_2" result="shape"/></filter><filter id="u" x="562.7" y="149.2" width="8.6" height="10.2" filterUnits="userSpaceOnUse" color-interpolation-filters="sRGB"><feFlood flood-opacity="0" result="BackgroundImageFix"/><feBlend in="SourceGraphic" in2="BackgroundImageFix" result="shape"/><feColorMatrix in="SourceAlpha" values="0 0 0 0 0 0 0 0 0 0 0 0 0 0 0 0 0 0 127 0" result="hardAlpha"/><feOffset/><feGaussianBlur stdDeviation="2.5"/><feComposite in2="hardAlpha" operator="arithmetic" k2="-1" k3="1"/><feColorMatrix values="0 0 0 0 1 0 0 0 0 1 0 0 0 0 1 0 0 0 0.048998 0"/><feBlend in2="shape" result="effect1_innerShadow_1557_2"/><feColorMatrix in="SourceAlpha" values="0 0 0 0 0 0 0 0 0 0 0 0 0 0 0 0 0 0 127 0" result="hardAlpha"/><feOffset dy="1"/><feGaussianBlur stdDeviation=".5"/><feComposite in2="hardAlpha" operator="arithmetic" k2="-1" k3="1"/><feColorMatrix values="0 0 0 0 0.992214 0 0 0 0 0.992214 0 0 0 0 0.992214 0 0 0 0.160128 0"/><feBlend in2="effect1_innerShadow_1557_2" result="effect2_innerShadow_1557_2"/><feColorMatrix in="SourceAlpha" values="0 0 0 0 0 0 0 0 0 0 0 0 0 0 0 0 0 0 127 0" result="hardAlpha"/><feOffset dy="-1"/><feGaussianBlur stdDeviation=".5"/><feComposite in2="hardAlpha" operator="arithmetic" k2="-1" k3="1"/><feColorMatrix values="0 0 0 0 1 0 0 0 0 1 0 0 0 0 1 0 0 0 0.438208 0"/><feBlend in2="effect2_innerShadow_1557_2" result="effect3_innerShadow_1557_2"/></filter><filter id="y" x="446.1" y="405.4" width="242.6" height="244.2" filterUnits="userSpaceOnUse" color-interpolation-filters="sRGB"><feFlood flood-opacity="0" result="BackgroundImageFix"/><feColorMatrix in="SourceAlpha" values="0 0 0 0 0 0 0 0 0 0 0 0 0 0 0 0 0 0 127 0" result="hardAlpha"/><feOffset dy="2"/><feGaussianBlur stdDeviation="10"/><feColorMatrix values="0 0 0 0 0 0 0 0 0 0 0 0 0 0 0 0 0 0 0.153846 0"/><feBlend in2="BackgroundImageFix" result="effect1_dropShadow_1557_2"/><feBlend in="SourceGraphic" in2="effect1_dropShadow_1557_2" result="shape"/></filter><filter id="B" x="677.2" y="372.2" width="284.4" height="496.5" filterUnits="userSpaceOnUse" color-interpolation-filters="sRGB"><feFlood flood-opacity="0" result="BackgroundImageFix"/><feColorMatrix in="SourceAlpha" values="0 0 0 0 0 0 0 0 0 0 0 0 0 0 0 0 0 0 127 0" result="hardAlpha"/><feOffset dy="20"/><feGaussianBlur stdDeviation="15"/><feColorMatrix values="0 0 0 0 0 0 0 0 0 0 0 0 0 0 0 0 0 0 0.15 0"/><feBlend in2="BackgroundImageFix" result="effect1_dropShadow_1557_2"/><feBlend in="SourceGraphic" in2="effect1_dropShadow_1557_2" result="shape"/></filter><filter id="H" x="814.8" y="393" width="8.6" height="10.2" filterUnits="userSpaceOnUse" color-interpolation-filters="sRGB"><feFlood flood-opacity="0" result="BackgroundImageFix"/><feBlend in="SourceGraphic" in2="BackgroundImageFix" result="shape"/><feColorMatrix in="SourceAlpha" values="0 0 0 0 0 0 0 0 0 0 0 0 0 0 0 0 0 0 127 0" result="hardAlpha"/><feOffset/><feGaussianBlur stdDeviation="2.5"/><feComposite in2="hardAlpha" operator="arithmetic" k2="-1" k3="1"/><feColorMatrix values="0 0 0 0 1 0 0 0 0 1 0 0 0 0 1 0 0 0 0.048998 0"/><feBlend in2="shape" result="effect1_innerShadow_1557_2"/><feColorMatrix in="SourceAlpha" values="0 0 0 0 0 0 0 0 0 0 0 0 0 0 0 0 0 0 127 0" result="hardAlpha"/><feOffset dy="1"/><feGaussianBlur stdDeviation=".5"/><feComposite in2="hardAlpha" operator="arithmetic" k2="-1" k3="1"/><feColorMatrix values="0 0 0 0 0.992214 0 0 0 0 0.992214 0 0 0 0 0.992214 0 0 0 0.160128 0"/><feBlend in2="effect1_innerShadow_1557_2" result="effect2_innerShadow_1557_2"/><feColorMatrix in="SourceAlpha" values="0 0 0 0 0 0 0 0 0 0 0 0 0 0 0 0 0 0 127 0" result="hardAlpha"/><feOffset dy="-1"/><feGaussianBlur stdDeviation=".5"/><feComposite in2="hardAlpha" operator="arithmetic" k2="-1" k3="1"/><feColorMatrix values="0 0 0 0 1 0 0 0 0 1 0 0 0 0 1 0 0 0 0.438208 0"/><feBlend in2="effect2_innerShadow_1557_2" result="effect3_innerShadow_1557_2"/></filter><filter id="K" x="698.1" y="738.3" width="242.6" height="81.7" filterUnits="userSpaceOnUse" color-interpolation-filters="sRGB"><feFlood flood-opacity="0" result="BackgroundImageFix"/><feColorMatrix in="SourceAlpha" values="0 0 0 0 0 0 0 0 0 0 0 0 0 0 0 0 0 0 127 0" result="hardAlpha"/><feOffset dy="2"/><feGaussianBlur stdDeviation="10"/><feColorMatrix values="0 0 0 0 0 0 0 0 0 0 0 0 0 0 0 0 0 0 0.153846 0"/><feBlend in2="BackgroundImageFix" result="effect1_dropShadow_1557_2"/><feBlend in="SourceGraphic" in2="effect1_dropShadow_1557_2" result="shape"/></filter><filter id="M" x="425.1" y="591" width="284.4" height="496.5" filterUnits="userSpaceOnUse" color-interpolation-filters="sRGB"><feFlood flood-opacity="0" result="BackgroundImageFix"/><feColorMatrix in="SourceAlpha" values="0 0 0 0 0 0 0 0 0 0 0 0 0 0 0 0 0 0 127 0" result="hardAlpha"/><feOffset dy="20"/><feGaussianBlur stdDeviation="15"/><feColorMatrix values="0 0 0 0 0 0 0 0 0 0 0 0 0 0 0 0 0 0 0.15 0"/><feBlend in2="BackgroundImageFix" result="effect1_dropShadow_1557_2"/><feBlend in="SourceGraphic" in2="effect1_dropShadow_1557_2" result="shape"/></filter><filter id="S" x="562.7" y="611.7" width="8.6" height="10.2" filterUnits="userSpaceOnUse" color-interpolation-filters="sRGB"><feFlood flood-opacity="0" result="BackgroundImageFix"/><feBlend in="SourceGraphic" in2="BackgroundImageFix" result="shape"/><feColorMatrix in="SourceAlpha" values="0 0 0 0 0 0 0 0 0 0 0 0 0 0 0 0 0 0 127 0" result="hardAlpha"/><feOffset/><feGaussianBlur stdDeviation="2.5"/><feComposite in2="hardAlpha" operator="arithmetic" k2="-1" k3="1"/><feColorMatrix values="0 0 0 0 1 0 0 0 0 1 0 0 0 0 1 0 0 0 0.048998 0"/><feBlend in2="shape" result="effect1_innerShadow_1557_2"/><feColorMatrix in="SourceAlpha" values="0 0 0 0 0 0 0 0 0 0 0 0 0 0 0 0 0 0 127 0" result="hardAlpha"/><feOffset dy="1"/><feGaussianBlur stdDeviation=".5"/><feComposite in2="hardAlpha" operator="arithmetic" k2="-1" k3="1"/><feColorMatrix values="0 0 0 0 0.992214 0 0 0 0 0.992214 0 0 0 0 0.992214 0 0 0 0.160128 0"/><feBlend in2="effect1_innerShadow_1557_2" result="effect2_innerShadow_1557_2"/><feColorMatrix in="SourceAlpha" values="0 0 0 0 0 0 0 0 0 0 0 0 0 0 0 0 0 0 127 0" result="hardAlpha"/><feOffset dy="-1"/><feGaussianBlur stdDeviation=".5"/><feComposite in2="hardAlpha" operator="arithmetic" k2="-1" k3="1"/><feColorMatrix values="0 0 0 0 1 0 0 0 0 1 0 0 0 0 1 0 0 0 0.438208 0"/><feBlend in2="effect2_innerShadow_1557_2" result="effect3_innerShadow_1557_2"/></filter></defs></svg>