<svg width="139" height="20" fill="none" xmlns="http://www.w3.org/2000/svg"><g fill-rule="evenodd" clip-rule="evenodd"><path d="M91 16c4 0 6-3 6-6 0-4-2-6-6-6l-3 1V0h-3v15h3l3 1Zm-26 0c3 0 5-2 5-4 0-3-3-3-4-4l-2-1h1l1 1h3c0-3-1-4-4-4s-5 1-5 3c0 3 2 4 4 4l2 1-1 1-2-1h-3c0 2 2 4 5 4Zm-21-4c-1 2-3 4-6 4-4 0-6-3-6-6 0-4 2-6 6-6 3 0 6 2 6 6v1h-9l3 2 2-1h4Zm-8-3h4c0-2-1-2-2-2s-2 0-2 2Zm15 7 3-1h4V4h-3v1l-4-1c-3 0-6 2-6 6 0 3 3 6 6 6Zm-2-6c0 1 1 2 3 2l2-2c0-2-1-3-2-3-2 0-3 1-3 3Zm30 5c-2 3-3 5-6 5h-2v-4h2l2-1-5-11h5l2 6 2-6h4l-4 11Zm9-5c0 1 1 2 3 2l2-2c0-2-1-3-2-3-2 0-3 1-3 3Zm16 6 4-1h3V4h-3v1l-4-1c-3 0-6 2-6 6 0 3 3 6 6 6Zm-2-6c0 1 1 2 3 2l2-2c0-2-1-3-2-3-2 0-3 1-3 3Zm16 5V9l1-2 2 2v6h4V9c0-3-2-5-5-5l-3 1-1-1h-2v11h4Zm13-4v4h-4V0h4v9l3-5h4l-3 6 4 5h-5l-3-4Z" fill="#2D314D"/><path d="M11 0 0 20h6L17 0h-6Z" fill="url(#a)"/><path opacity=".5" d="M18 0 7 20h6L24 0h-6Z" fill="url(#b)"/><path opacity=".1" d="M26 0 15 20h6L32 0h-6Z" fill="url(#c)"/></g><defs><linearGradient id="a" x1="5.1" y1="-7.4" x2="-10.2" y2="9.9" gradientUnits="userSpaceOnUse"><stop stop-color="#33D35E"/><stop offset="1" stop-color="#2AB6D9"/></linearGradient><linearGradient id="b" x1="12.5" y1="-7.4" x2="-2.8" y2="9.9" gradientUnits="userSpaceOnUse"><stop stop-color="#33D35E"/><stop offset="1" stop-color="#2AB6D9"/></linearGradient><linearGradient id="c" x1="19.9" y1="-7.4" x2="4.5" y2="9.9" gradientUnits="userSpaceOnUse"><stop stop-color="#33D35E"/><stop offset="1" stop-color="#2AB6D9"/></linearGradient></defs></svg>