<svg width="72" height="72" fill="none" xmlns="http://www.w3.org/2000/svg"><circle cx="36" cy="36" r="36" fill="url(#a)"/><path fill-rule="evenodd" clip-rule="evenodd" d="M49 23v-4c0-2-1-3-3-3H19c-2 0-3 1-3 3v15c0 2 1 3 3 3l2 7c1 2 3 2 5 2l15-6c-1 2 0 6 1 8l1 1v7h12l1-1V33l-3-6-4-4Zm0 4 2 5c1 1 0 2-1 3h-1v-8Zm-32-8v15l2 2h20l-2-3a4 4 0 0 1 5-5l6 6V19l-2-2H19l-2 2Zm9 18-5 2-1-2h6Zm-3 6c0 1 1 2 2 1l16-6v-1H30l-8 3 1 3Zm21 12v-6h11v6H44Zm0-7h11V33c0-2-1-4-3-5l-2-2 3 6-2 4h-1l2 3v1L41 29a2 2 0 0 0-3 3l5 6v10h1ZM25 24l-1 1h-4l-1-1v-4l1-1h4l1 1v4Zm-5-1v1h4v-1h-1v-2h1v-1h-4v1h1v2h-1Zm2 4h-3v2h3v-2Zm-3 4h3v2h-3v-2Zm15 0h-3v2h3v-2Zm-11-4h3v2h-3v-2Zm7 0h-3v2h3v-2Zm1 0h3v2h-3v-2Zm14-8h-1v2h1v-2Zm-4 0h2v2h-2v-2Zm-1 0h-1v2h1v-2Zm-4 0h1v2h-1v-2Zm11 33v-1h-2v1h2Z" fill="#fff"/><defs><linearGradient id="a" x1="-35.8" y1="35.8" x2="35.8" y2="107.5" gradientUnits="userSpaceOnUse"><stop stop-color="#33D35E"/><stop offset="1" stop-color="#2AB6D9"/></linearGradient></defs></svg>