<svg width="72" height="72" fill="none" xmlns="http://www.w3.org/2000/svg"><circle cx="36" cy="36" r="36" fill="url(#a)"/><path fill-rule="evenodd" clip-rule="evenodd" d="M55 35h-9v-1h3a1 1 0 1 0 0-1h-3v-1h2l1-1 4-4a2 2 0 0 0 2 0 2 2 0 0 0 0-3 2 2 0 0 0-2 0 2 2 0 0 0 0 2l-4 4h-3v-1c0-2-1-3-3-3h-1v-5a2 2 0 1 0-2 0v5h-1v-3a1 1 0 1 0-1 0v3h-1v-9a1 1 0 1 0-2 0v9h-1v-3a1 1 0 1 0-1 0v3h-1v-2l-1-1-4-4a2 2 0 1 0-1 0l4 4v3h-2a1 1 0 0 0 1 1h14l2 2v14a1 1 0 1 0 1 1v-2h5a2 2 0 1 0 0-2h-5v-1h3a1 1 0 0 0 0-1h-3v-1h9a1 1 0 1 0 0-2Zm-1-10a1 1 0 0 1 1 0 1 1 0 0 1 0 1 1 1 0 0 1-1 0 1 1 0 0 1 0-1Zm-29-7a1 1 0 1 0 1-1 1 1 0 0 0-1 1Zm16 2a1 1 0 1 1 0-2 1 1 0 0 1 0 2Zm13 21a1 1 0 1 0-2 0 1 1 0 0 0 2 0Zm-6 12h-2l-4-4v-3h2a1 1 0 0 0-1-1H29l-2-2V29a1 1 0 0 0-1-1v2h-5a2 2 0 1 0 0 2h5v1h-3a1 1 0 1 0 0 1h3v1h-9a1 1 0 1 0 0 2h9v1h-3a1 1 0 1 0 0 1h3v1h-2l-1 1-4 4a2 2 0 0 0-2 0 2 2 0 0 0 0 3 2 2 0 0 0 2 0 2 2 0 0 0 0-2l4-4h3v1c0 2 1 3 3 3h1v5a2 2 0 1 0 2 0v-5h1v3a1 1 0 0 0 1 0v-3h1v9a1 1 0 1 0 2 0v-9h1v3a1 1 0 1 0 1 0v-3h1v2l1 1 4 4a2 2 0 1 0 3 0ZM19 32a1 1 0 1 1 0-2 1 1 0 0 1 0 2Zm-1 15a1 1 0 0 0 1 0 1 1 0 0 0-1-1 1 1 0 0 0-1 1 1 1 0 0 0 1 0Zm14 6a1 1 0 1 1-2 0 1 1 0 0 1 2 0Zm14 2a1 1 0 1 0 1-1 1 1 0 0 0-1 1Zm-4-21-2-2v-1l-2-2-2 1-2-1-2 2v1l-2 2v2a3 3 0 0 0 1 4c0 2 1 3 3 3l2-1 2 1c2 0 3-1 3-2l1-3-1-2 1-2Zm-2 3 1 1v1l-2-1a1 1 0 0 0 0 1l1 1-2 2-1-2v-3l1-2a1 1 0 1 0 0-1l-1 1v-1a1 1 0 0 0-2 0v3a1 1 0 1 0-1 1l1 1v1l-1 2-2-2h1a1 1 0 1 0-1-1l-1-1 2-2a1 1 0 1 0-1-1h-1v-1l2-1a1 1 0 0 0 0-1v-1l1-1 1 1a1 1 0 0 0 2 0l1-1 1 1v1h-1a1 1 0 0 0 0 1h1l2 1-1 2a1 1 0 0 0 0 1Z" fill="#fff"/><defs><linearGradient id="a" x1="-35.8" y1="35.8" x2="35.8" y2="107.5" gradientUnits="userSpaceOnUse"><stop stop-color="#33D35E"/><stop offset="1" stop-color="#2AB6D9"/></linearGradient></defs></svg>