<svg width="72" height="72" fill="none" xmlns="http://www.w3.org/2000/svg"><circle cx="36" cy="36" r="36" fill="url(#a)"/><path fill-rule="evenodd" clip-rule="evenodd" d="M48 19v8c5 0 9 4 9 9s-4 9-9 9v8c0 2-2 3-3 3H27c-2 0-3-1-3-3v-7a1 1 0 1 1 1 0v3h22v-4h-3l-5 2-1-1 2-3h-7l-5-5V24h15l1 1v2h3v-5H25v21a1 1 0 1 1-1 0V19c0-2 1-3 3-3h18c1 0 3 1 3 3Zm-3 36 2-2v-3H25v3l2 2h18ZM25 21v-2l2-2h18l2 2v2H25Zm5 17 2 3v-3h-2Zm4 4v-4l-1-1h-4V25h14v3l-2 1h-3a1 1 0 1 0 0 1h2l-2 2h-7a1 1 0 1 0 0 1h7a9 9 0 0 0 1 9h-5Zm10 2h3c5 0 9-3 9-8s-4-8-9-8-9 3-9 8l3 6-1 3 3-1h1Zm-9-25h2a1 1 0 1 1 0 1h-2a1 1 0 1 1 0-1Zm2 32h-2l-1 1v2h4v-2l-1-1Zm0 2h-2v-1h2v1Zm-2-24h-4a1 1 0 1 0 0 1h4a1 1 0 1 0 0-1Zm-4 6h5a1 1 0 1 1 0 1h-5a1 1 0 1 1 0-1Zm19-1a1 1 0 1 1-1 0v-1l-1-1h-1a2 2 0 0 0 0 3 3 3 0 0 1 1 6v1a1 1 0 1 1-1 0v-1c-2 0-3-1-3-2a1 1 0 1 1 1 0l2 1a2 2 0 0 0 0-3 3 3 0 0 1 0-6v-1a1 1 0 1 1 1 0v1l2 2v1Z" fill="#fff"/><defs><linearGradient id="a" x1="-35.8" y1="35.8" x2="35.8" y2="107.5" gradientUnits="userSpaceOnUse"><stop stop-color="#33D35E"/><stop offset="1" stop-color="#2AB6D9"/></linearGradient></defs></svg>